<svg width="413" height="1113" viewBox="0 0 413 1113" fill="none" xmlns="http://www.w3.org/2000/svg">
<path d="M26 181.285C26 174.478 29.7785 168.233 35.8087 165.075L199.22 79.4785C204.57 76.6758 210.959 76.6938 216.294 79.5267L377.349 165.052C383.328 168.228 387.066 174.445 387.066 181.215V842.23C387.066 854.354 375.49 863.127 363.818 859.849L39.3523 768.732C31.4564 766.514 26 759.315 26 751.113V181.285Z" fill="#333333"/>
<path d="M61 507.3C61 496.641 69.6409 488 80.3 488H207.497H332.7C343.359 488 352 496.641 352 507.3V1076.55C352 1092.04 334.666 1101.22 321.852 1092.51L69.4521 920.987C64.1651 917.394 61 911.416 61 905.024V507.3Z" fill="white"/>
<rect y="348" width="413" height="104" fill="#FFB456"/>
<path d="M0 452H27L26.325 471L0 452Z" fill="#E38611"/>
<path d="M413 452H386L386.675 471L413 452Z" fill="#E38611"/>
<path d="M351.5 937.5H368.5L351.5 949.5V937.5Z" fill="#E38611"/>
<path fill-rule="evenodd" clip-rule="evenodd" d="M258.5 897C247.178 897 238 906.178 238 917.5C238 928.822 247.178 938 258.5 938H264.434L286.177 913.966C287.659 912.328 290.189 912.201 291.827 913.684C293.465 915.166 293.592 917.695 292.11 919.333L275.222 938H288.434L310.177 913.966C311.659 912.328 314.189 912.201 315.827 913.684C317.465 915.166 317.592 917.695 316.11 919.333L299.222 938H312.434L334.177 913.966C335.659 912.328 338.189 912.201 339.827 913.684C341.465 915.166 341.592 917.695 340.11 919.333L323.222 938H368V897H258.5Z" fill="#FFB456"/>
<path d="M102.015 66.3867L207 5.7735L311.985 66.3867V187.613L207 248.227L102.015 187.613V66.3867Z" fill="white" stroke="#F2994A" stroke-width="10"/>
<path d="M283.085 143.559H219.011V161.497H283.085V143.559Z" fill="#19468E"/>
<path d="M282.963 149.66L219.011 149.416V143.437L283.085 143.559L282.963 149.66Z" fill="#103975"/>
<path d="M278.813 152.467H223.161V153.809H278.813V152.467Z" fill="#103975"/>
<path d="M278.813 155.884H223.161V157.226H278.813V155.884Z" fill="#103975"/>
<path d="M278.813 144.779H223.161V148.318H278.813V144.779Z" fill="#1D4A9D"/>
<path d="M202.641 132.133H163.952V151.169H202.641V132.133Z" fill="#ECEBE4"/>
<path d="M202.641 139.699H163.952V143.725H202.641V139.699Z" fill="#D3D2CD"/>
<path d="M218.506 150.559H148.574V154.22H218.506V150.559Z" fill="#1E0F46"/>
<path d="M232.298 138.478C232.298 139.088 231.809 139.577 231.199 139.577H132.098C131.488 139.577 131 139.088 131 138.478V77.0982C131 76.4881 131.488 76 132.098 76H231.199C231.809 76 232.298 76.4881 232.298 77.0982V138.478Z" fill="#1E0F46"/>
<path d="M228.88 79.2947H134.295V132.743H228.88V79.2947Z" fill="#29B9E6"/>
<path d="M228.88 79.1727H134.295V84.1759H228.88V79.1727Z" fill="#FFFFFD"/>
<path d="M219.117 84.0539H142.96V130.302H219.117V84.0539Z" fill="#FFFFFD"/>
<path d="M171.763 85.7622H146.378V126.886H171.763V85.7622Z" fill="#868BE9"/>
<path d="M193.731 85.7622H174.814V87.4706H193.731V85.7622Z" fill="#CBE1FF"/>
<path d="M185.31 88.935H174.814V90.6434H185.31V88.935Z" fill="#CBE1FF"/>
<path d="M193.731 92.2297H174.814V93.9381H193.731V92.2297Z" fill="#CBE1FF"/>
<path d="M186.897 95.4024H174.814V97.1108H186.897V95.4024Z" fill="#CBE1FF"/>
<path d="M180.062 99.3073H174.814V101.382H180.062V99.3073Z" fill="#868BE9"/>
<path d="M193.731 106.019H174.814V107.727H193.731V106.019Z" fill="#CBE1FF"/>
<path d="M185.31 109.192H174.814V110.9H185.31V109.192Z" fill="#CBE1FF"/>
<path d="M193.731 112.486H174.814V114.195H193.731V112.486Z" fill="#CBE1FF"/>
<path d="M186.897 115.659H174.814V117.367H186.897V115.659Z" fill="#CBE1FF"/>
<path d="M180.062 119.564H174.814V121.638H180.062V119.564Z" fill="#868BE9"/>
<path d="M215.578 85.7622H198.247V127.374H215.578V85.7622Z" fill="#F7AE30"/>
<path d="M215.089 80.8811H145.89V82.4675H215.089V80.8811Z" fill="#6BD4E5"/>
<path d="M184.7 136.77C184.7 137.868 183.846 138.722 182.747 138.722C181.649 138.722 180.794 137.868 180.794 136.77C180.794 135.672 181.649 134.817 182.747 134.817C183.846 134.817 184.7 135.672 184.7 136.77Z" fill="#CBE1FF"/>
<path d="M137.468 81.7353C137.468 82.2234 137.102 82.7115 136.492 82.7115C136.004 82.7115 135.516 82.3454 135.516 81.7353C135.516 81.2472 135.882 80.7591 136.492 80.7591C136.98 80.8811 137.468 81.2472 137.468 81.7353Z" fill="#FD6BCD"/>
<path d="M140.398 81.7353C140.398 82.2234 140.031 82.7115 139.421 82.7115C138.933 82.7115 138.445 82.3454 138.445 81.7353C138.445 81.2472 138.811 80.7591 139.421 80.7591C140.031 80.8811 140.398 81.2472 140.398 81.7353Z" fill="#EDDE00"/>
<path d="M143.327 81.7353C143.327 82.2234 142.96 82.7115 142.35 82.7115C141.862 82.7115 141.374 82.3454 141.374 81.7353C141.374 81.2472 141.74 80.7591 142.35 80.7591C142.96 80.8811 143.327 81.2472 143.327 81.7353Z" fill="#868BE9"/>
<path d="M200.183 121.895C200.183 121.895 194.868 119.585 193.712 120.278C192.788 120.971 190.477 124.668 199.721 124.206L200.183 121.895Z" fill="#F7AE30"/>
<path d="M244.091 108.263L233.461 132.524L199.027 124.437L199.49 121.433L226.99 123.513L237.621 102.486C237.621 102.486 242.242 93.2436 245.478 97.4027C247.096 99.7134 246.402 103.41 244.091 108.263Z" fill="#140B35"/>
<path d="M233.692 138.301L207.116 181.741L203.649 181.048L214.973 140.149L233.692 138.301Z" fill="#6A76CC"/>
<path d="M250.562 131.831C250.562 131.831 260.499 149.854 240.394 149.623C220.519 149.392 216.128 150.316 216.128 150.316L231.15 172.961L229.763 176.427C229.763 176.427 199.952 144.54 199.489 140.843C199.258 137.146 193.712 133.449 250.562 131.831Z" fill="#757ED8"/>
<path d="M231.381 171.343L227.915 175.04L230.226 177.351L230.688 179.199L229.07 187.98L230.226 186.593L234.154 180.124L234.847 179.893L236.696 177.813L231.381 171.343Z" fill="#F2994A"/>
<path d="M208.04 181.279L202.956 180.586L202.494 184.052L201.338 185.438L193.25 189.366H195.099L202.725 188.673L203.187 189.135L205.96 189.366L208.04 181.279Z" fill="#F2994A"/>
<path d="M233.461 97.8648C233.692 99.0201 229.532 99.7132 229.301 98.5579C228.608 95.5541 228.608 93.2435 228.608 93.2435L231.612 91.3949C231.381 91.3949 232.767 95.5541 233.461 97.8648Z" fill="#F7AE30"/>
<path d="M229.301 94.8609C229.07 94.8609 226.528 95.7853 225.835 94.6299C225.141 93.4746 224.448 88.6222 224.91 87.2359C225.373 85.8495 227.221 84.9252 228.377 85.1563C229.301 85.3874 232.537 87.698 232.074 92.5503C231.843 92.5503 230.919 94.3988 229.301 94.8609Z" fill="#F7AE30"/>
<path d="M224.217 87.4669C224.217 87.4669 224.679 89.0844 225.835 88.6223C226.99 88.1601 228.839 87.4669 229.301 88.3912C229.763 89.3154 229.301 92.3193 230.226 93.0125C230.919 93.7057 232.768 94.1678 232.768 93.0125C232.999 91.8571 232.305 84.9252 228.377 84.001C228.608 84.232 224.91 84.001 224.217 87.4669Z" fill="#171B23"/>
<path d="M220.519 100.638L228.377 133.68L253.104 135.297L243.629 96.4784L220.519 100.638Z" fill="#FFB456"/>
<path d="M187.241 124.899C187.241 124.899 182.619 123.282 181.926 123.975C181.233 124.668 179.615 127.903 187.241 126.748V124.899Z" fill="#F7AE30"/>
<path d="M222.137 110.342L215.435 131.138L186.548 127.21L186.779 124.668L209.427 124.206L216.36 106.183C216.36 106.183 219.364 98.0959 222.368 101.562C223.755 103.179 223.524 105.952 222.137 110.342Z" fill="#140B35"/>
</svg>
