<svg width="413" height="1114" viewBox="0 0 413 1114" fill="none" xmlns="http://www.w3.org/2000/svg">
<path d="M26 182.285C26 175.478 29.7785 169.233 35.8087 166.075L199.22 80.4785C204.57 77.6758 210.959 77.6938 216.294 80.5267L377.349 166.052C383.328 169.228 387.066 175.445 387.066 182.215V843.23C387.066 855.354 375.49 864.127 363.818 860.849L39.3523 769.732C31.4564 767.514 26 760.315 26 752.113V182.285Z" fill="#333333"/>
<path d="M61 508.3C61 497.641 69.6409 489 80.3 489H207.497H332.7C343.359 489 352 497.641 352 508.3V1073.91C352 1090 333.483 1099.02 320.813 1089.12L68.413 891.795C63.7342 888.138 61 882.529 61 876.59V508.3Z" fill="white"/>
<rect y="349" width="413" height="104" fill="#6B18F3"/>
<path d="M0 453H27L26.325 472L0 453Z" fill="#5715C4"/>
<path d="M413 453H386L386.675 472L413 453Z" fill="#5715C4"/>
<path d="M351.5 941.5H368.5L351.5 953.5V941.5Z" fill="#5715C3"/>
<path fill-rule="evenodd" clip-rule="evenodd" d="M258.5 901C247.178 901 238 910.178 238 921.5C238 932.822 247.178 942 258.5 942H264.434L286.177 917.966C287.659 916.328 290.189 916.201 291.827 917.684C293.465 919.166 293.592 921.695 292.11 923.333L275.222 942H288.434L310.177 917.966C311.659 916.328 314.189 916.201 315.827 917.684C317.465 919.166 317.592 921.695 316.11 923.333L299.222 942H312.434L334.177 917.966C335.659 916.328 338.189 916.201 339.827 917.684C341.465 919.166 341.592 921.695 340.11 923.333L323.222 942H368V901H258.5Z" fill="#6B18F3"/>
<path d="M102.015 66.3867L207 5.7735L311.985 66.3867V187.613L207 248.227L102.015 187.613V66.3867Z" fill="white" stroke="#2F80ED" stroke-width="10"/>
<path d="M207.331 140.017L196.572 139.49L197.62 148.846C197.62 148.846 205.086 150.27 208.419 144.958L207.331 140.017Z" fill="#EBB376"/>
<path d="M189.637 142.753L192.087 149.538L197.62 148.846L196.572 139.49L189.637 142.753Z" fill="#EBB376"/>
<path d="M217.659 155.201C213.562 153.061 209.828 150.29 206.594 146.987L207.331 140.017C217.499 141.52 223.367 143.67 223.367 143.67C223.367 143.67 219.599 130.165 223.046 125.244L232.512 126.958C232.512 126.958 242.57 147.864 235.805 155.201H217.659Z" fill="#407BFF"/>
<path opacity="0.7" d="M217.674 155.201C213.575 153.062 209.838 150.292 206.6 146.992L207.331 140.012C217.173 141.455 222.991 143.52 223.367 143.655C223.242 143.154 219.679 130.069 223.057 125.239L232.523 126.953C234.469 131.151 236.014 135.523 237.138 140.012C238.491 145.72 238.887 151.868 235.81 155.201H217.674Z" fill="white"/>
<path opacity="0.2" d="M225.457 155.201C222.115 134.023 225.076 128.641 225.076 128.641L237.103 140.002C238.456 145.71 238.852 151.858 235.775 155.191L225.457 155.201Z" fill="black"/>
<path d="M227.547 155.201C225.292 144.497 222.761 127.739 223.037 125.244C223.437 121.616 243.172 106.071 260.3 117.386C263.808 119.696 265.597 144.617 266.208 155.201H227.547Z" fill="#407BFF"/>
<path opacity="0.7" d="M227.547 155.201C225.292 144.497 222.761 127.734 223.037 125.239C223.437 121.616 243.177 106.071 260.305 117.391C261.573 118.238 262.615 122.062 263.477 127.113C264.62 133.988 265.411 143.119 265.883 150.004C266.013 151.954 266.123 153.718 266.208 155.201H227.547Z" fill="white"/>
<path d="M236.001 71.398C241.939 68.9977 255.94 77.612 257.168 92.9714C258.396 108.331 250.608 104.076 250.608 104.076C250.608 104.076 249.22 109.934 243.548 108.125C243.548 108.125 238.862 113.432 234.502 111.272C234.502 111.272 229.075 116.925 226.164 113.943C226.164 113.943 222.996 117.556 220.105 114.82C217.214 112.084 208.95 84.1516 221.914 77.6921C234.878 71.2327 236.001 71.398 236.001 71.398Z" fill="#263238"/>
<path d="M235.99 134.264L236.562 134.214C235.9 126.817 237.529 123.545 237.564 123.515L237.063 123.249C236.968 123.364 235.314 126.657 235.99 134.264Z" fill="#263238"/>
<path d="M233.305 134.329C237.238 125.063 232.804 122.903 232.623 122.803L232.388 123.304C232.428 123.304 236.477 125.354 232.778 134.073L233.305 134.329Z" fill="#263238"/>
<path d="M237.148 125.013C237.148 125.013 244.74 119 256.526 115.612L260.31 117.386C260.31 117.386 266.654 109.534 256.08 106.963C245.507 104.392 231.125 111.473 227.517 117.536C223.908 123.6 233.791 125.554 233.791 125.554C233.791 125.554 234.698 124.322 237.148 125.013Z" fill="#407BFF"/>
<path opacity="0.6" d="M237.148 125.013C237.148 125.013 244.74 119 256.526 115.612L260.31 117.386C260.31 117.386 266.654 109.534 256.08 106.963C245.507 104.392 231.125 111.473 227.517 117.536C223.908 123.6 233.791 125.554 233.791 125.554C233.791 125.554 234.698 124.322 237.148 125.013Z" fill="white"/>
<path d="M232.568 134.219C232.568 134.318 232.597 134.415 232.652 134.497C232.707 134.58 232.785 134.644 232.877 134.682C232.968 134.72 233.069 134.73 233.166 134.71C233.264 134.691 233.353 134.643 233.423 134.573C233.493 134.503 233.541 134.414 233.56 134.317C233.58 134.219 233.57 134.119 233.532 134.027C233.494 133.935 233.43 133.857 233.347 133.802C233.265 133.747 233.168 133.718 233.069 133.718C232.936 133.718 232.808 133.77 232.714 133.864C232.62 133.958 232.568 134.086 232.568 134.219Z" fill="white"/>
<path d="M235.82 134.219C235.82 134.318 235.85 134.415 235.905 134.497C235.96 134.58 236.038 134.644 236.13 134.682C236.221 134.72 236.322 134.73 236.419 134.71C236.516 134.691 236.606 134.643 236.676 134.573C236.746 134.503 236.794 134.414 236.813 134.317C236.832 134.219 236.822 134.119 236.784 134.027C236.746 133.935 236.682 133.857 236.6 133.802C236.517 133.747 236.421 133.718 236.321 133.718C236.188 133.718 236.061 133.77 235.967 133.864C235.873 133.958 235.82 134.086 235.82 134.219Z" fill="white"/>
<path d="M241.182 96.6798C241.643 102.057 243.292 111.628 247.667 113.718C247.667 113.718 242.776 114.72 235.139 124.397C230.794 121.35 232.438 119.27 232.438 119.27C237.519 115.938 236.201 111.829 234.146 108.246L241.182 96.6798Z" fill="#EBB376"/>
<path opacity="0.2" d="M238.321 101.395L234.157 108.261C234.654 109.089 235.075 109.962 235.414 110.866C237.419 109.794 239.614 106.396 239.198 104.071C239.068 103.134 238.771 102.227 238.321 101.395Z" fill="black"/>
<path d="M241.769 85.3092C243.167 93.7581 243.938 97.296 240.806 102.733C236.101 110.917 225.673 111.302 221.839 103.565C218.391 96.5995 216.682 83.9511 223.879 78.3686C230.979 72.8663 240.38 76.8552 241.769 85.3092Z" fill="#EBB376"/>
<path d="M224.465 73.6631C218.987 76.7 213.771 86.1912 221.563 83.8209C222.741 86.101 226.935 84.0113 229.376 81.2752C229.786 83.1745 234.277 85.0787 237.584 82.1371C235.985 84.4423 238.706 90.2603 241.538 89.2581C244.369 88.2558 250.723 86.9379 245.096 77.9678C239.468 68.9977 230.313 70.4109 224.465 73.6631Z" fill="#263238"/>
<path d="M226.459 93.2821C226.459 93.2821 225.958 96.6346 225.006 98.4537C226.073 99.0701 227.511 98.2482 227.511 98.2482L226.459 93.2821Z" fill="#D58745"/>
<path d="M231.921 99.7516C231.566 99.9252 231.195 100.066 230.814 100.173C230.788 100.18 230.761 100.182 230.735 100.178C230.708 100.174 230.683 100.165 230.66 100.151C230.637 100.137 230.618 100.118 230.603 100.096C230.588 100.074 230.578 100.049 230.573 100.022C230.56 99.967 230.568 99.9087 230.597 99.8599C230.626 99.8111 230.674 99.7758 230.729 99.7616C231.591 99.52 232.388 99.088 233.061 98.4973C233.734 97.9067 234.266 97.1725 234.617 96.3489C234.625 96.3223 234.638 96.2975 234.655 96.2759C234.672 96.2544 234.694 96.2365 234.718 96.2234C234.742 96.2103 234.769 96.2022 234.796 96.1997C234.824 96.1972 234.852 96.2002 234.878 96.2086C234.929 96.2298 234.969 96.2699 234.991 96.3205C235.012 96.371 235.013 96.428 234.993 96.4792C234.407 97.9107 233.313 99.0757 231.921 99.7516Z" fill="#263238"/>
<path d="M246.033 91.3828C245.56 93.1394 244.411 94.637 242.836 95.5471C240.796 96.6646 239.328 94.7503 239.478 92.37C239.633 90.2202 240.886 87.0531 243.121 86.9278C245.356 86.8025 246.639 89.1628 246.033 91.3828Z" fill="#EBB376"/>
<path d="M232.497 85.5398C232.447 85.5631 232.393 85.5752 232.337 85.5752C232.282 85.5752 232.227 85.5631 232.177 85.5398C231.732 85.293 231.233 85.1593 230.725 85.1505C230.216 85.1418 229.713 85.2583 229.26 85.4897C229.215 85.5185 229.165 85.5376 229.112 85.5456C229.059 85.5536 229.005 85.5505 228.954 85.5363C228.902 85.5221 228.854 85.4972 228.813 85.4633C228.772 85.4294 228.738 85.3872 228.714 85.3394C228.664 85.2384 228.654 85.1228 228.684 85.0145C228.715 84.9063 228.784 84.8132 228.879 84.753C229.445 84.4434 230.079 84.2811 230.724 84.2811C231.368 84.2811 232.002 84.4434 232.568 84.753C232.662 84.8096 232.732 84.9004 232.762 85.0067C232.792 85.113 232.78 85.2267 232.728 85.3243C232.679 85.4213 232.598 85.4977 232.497 85.5398Z" fill="#263238"/>
<path d="M219.033 88.8371C218.987 88.863 218.937 88.879 218.886 88.8842C218.834 88.8894 218.781 88.8836 218.732 88.8672C218.68 88.8498 218.632 88.8221 218.591 88.7857C218.549 88.7494 218.516 88.7052 218.492 88.6556C218.468 88.6061 218.454 88.5523 218.452 88.4974C218.449 88.4425 218.458 88.3876 218.476 88.336C218.659 87.6849 218.99 87.0847 219.443 86.5823C219.896 86.08 220.459 85.6889 221.087 85.4395C221.139 85.4212 221.194 85.4142 221.248 85.4191C221.303 85.4239 221.356 85.4405 221.403 85.4676C221.451 85.4947 221.492 85.5317 221.524 85.5762C221.556 85.6206 221.578 85.6714 221.588 85.7252C221.614 85.834 221.599 85.9486 221.545 86.0468C221.492 86.1449 221.403 86.2197 221.298 86.2564C220.802 86.4612 220.36 86.7768 220.006 87.179C219.652 87.5812 219.394 88.0593 219.253 88.5765C219.236 88.6325 219.207 88.6843 219.169 88.729C219.131 88.7738 219.085 88.8105 219.033 88.8371Z" fill="#263238"/>
<path d="M229.801 91.0672C230.047 91.7387 230.608 92.1446 231.054 91.9792C231.5 91.8139 231.661 91.1423 231.415 90.4759C231.169 89.8094 230.608 89.3984 230.167 89.5638C229.726 89.7292 229.561 90.4007 229.801 91.0672Z" fill="#263238"/>
<path d="M230.363 89.5285L228.699 89.4934C228.699 89.4934 229.872 90.4456 230.363 89.5285Z" fill="#263238"/>
<path d="M221.388 93.738C221.633 94.4045 222.195 94.8104 222.636 94.65C223.077 94.4897 223.247 93.8082 223.001 93.1467C222.756 92.4852 222.195 92.0743 221.749 92.2346C221.303 92.395 221.142 93.0665 221.388 93.738Z" fill="#263238"/>
<path d="M221.944 92.1946L220.285 92.1595C220.285 92.1595 221.458 93.1167 221.944 92.1946Z" fill="#263238"/>
<path d="M230.594 95.8028C231.111 95.8044 231.624 95.6968 232.097 95.487C232.598 95.2572 233.043 94.9213 233.401 94.5025C233.759 94.0837 234.022 93.5921 234.172 93.0616C234.495 91.918 234.406 90.6974 233.922 89.6122C233.437 88.5271 232.588 87.6463 231.521 87.1233C231.026 86.8762 230.483 86.7418 229.931 86.7297C229.378 86.7176 228.83 86.8282 228.325 87.0534C227.821 87.2787 227.372 87.613 227.012 88.0323C226.652 88.4517 226.39 88.9456 226.244 89.4786C225.911 90.6211 226.001 91.8455 226.499 92.9263C226.97 94.0248 227.823 94.9151 228.9 95.4319C229.431 95.6776 230.009 95.8042 230.594 95.8028ZM229.807 87.3087C230.306 87.322 230.796 87.4416 231.245 87.6595C232.186 88.1251 232.935 88.9043 233.363 89.863C233.792 90.8217 233.872 91.8998 233.59 92.9113C233.47 93.3666 233.249 93.7892 232.944 94.1481C232.638 94.5069 232.257 94.7929 231.827 94.9851C231.397 95.1773 230.929 95.2708 230.458 95.2588C229.987 95.2468 229.525 95.1296 229.105 94.9158C228.157 94.4618 227.404 93.6806 226.986 92.7158C226.545 91.759 226.465 90.6752 226.76 89.664C226.886 89.2115 227.109 88.7918 227.413 88.4343C227.718 88.0769 228.097 87.7902 228.524 87.5944C228.925 87.4057 229.363 87.3082 229.807 87.3087Z" fill="#263238"/>
<path d="M222.255 98.3583C222.773 98.3629 223.286 98.2552 223.758 98.0426C224.259 97.8122 224.705 97.4762 225.064 97.0575C225.423 96.6389 225.687 96.1475 225.838 95.6172C226.159 94.473 226.069 93.2527 225.583 92.1679C225.098 91.0832 224.249 90.2026 223.182 89.6789C222.688 89.4308 222.145 89.2957 221.593 89.2831C221.04 89.2706 220.492 89.381 219.988 89.6064C219.483 89.8319 219.035 90.1666 218.676 90.5865C218.316 91.0064 218.055 91.5009 217.91 92.0342C217.573 93.1758 217.662 94.4011 218.161 95.4819C218.499 96.301 219.064 97.0067 219.789 97.5162C220.514 98.0256 221.37 98.3178 222.255 98.3583ZM221.458 89.8393C221.964 89.8427 222.463 89.9555 222.921 90.17C223.869 90.6275 224.621 91.4099 225.041 92.3749C225.484 93.3293 225.565 94.4125 225.267 95.4218C225.141 95.8749 224.918 96.2953 224.613 96.6536C224.309 97.0119 223.93 97.2995 223.503 97.4964C221.749 98.2832 219.574 97.2609 218.662 95.2263C218.223 94.2689 218.143 93.1859 218.436 92.1745C218.563 91.7224 218.786 91.3031 219.091 90.9458C219.395 90.5885 219.774 90.3015 220.2 90.1049C220.599 89.9389 221.027 89.857 221.458 89.8643V89.8393Z" fill="#263238"/>
<path d="M225.833 93.1317C225.844 93.096 225.863 93.0631 225.888 93.0354C225.913 93.0077 225.944 92.9858 225.978 92.9713C226.198 92.933 226.425 92.9663 226.625 93.0666L226.875 92.5654C226.535 92.3914 226.142 92.3503 225.773 92.4502C225.657 92.491 225.552 92.5572 225.465 92.6439C225.379 92.7307 225.313 92.8357 225.272 92.9513L225.833 93.1317Z" fill="#263238"/>
<path d="M239.538 87.7694L239.709 88.3178L232.926 90.4376L232.755 89.8891L239.538 87.7694Z" fill="#263238"/>
<path opacity="0.2" d="M241.127 140.508C241.127 140.508 254.311 150.61 265.882 150.029C265.411 143.144 264.619 133.993 263.477 127.138C262.294 125.835 261.518 125.043 261.518 125.043L254.502 130.29L256.211 132.435C256.211 132.435 245.592 131.893 241.894 132.435L241.127 140.508Z" fill="black"/>
<path d="M239.764 132.41L229.21 130.255L228.834 139.666C228.834 139.666 235.995 142.202 240.094 137.456L239.764 132.41Z" fill="#EBB376"/>
<path d="M221.864 132.44L223.257 139.516L228.834 139.671L229.21 130.26L221.864 132.44Z" fill="#EBB376"/>
<path d="M239.764 132.41L239.248 139.671L241.874 140.849L242.996 132.41H239.764Z" fill="#407BFF"/>
<path opacity="0.6" d="M239.764 132.41L239.248 139.671L241.874 140.849L242.996 132.41H239.764Z" fill="white"/>
<path d="M256.527 115.612C259.359 116.112 261.923 117.596 263.768 119.801C266.95 123.54 278.165 134.645 275.675 143.71C273.184 152.775 249.2 146.03 241.874 140.849L242.996 132.41L259.609 133.627L254.487 130.255C250.974 120.483 256.527 115.612 256.527 115.612Z" fill="#407BFF"/>
<path opacity="0.7" d="M256.527 115.612C259.359 116.112 261.923 117.596 263.768 119.801C266.95 123.54 278.165 134.645 275.675 143.71C273.184 152.775 249.2 146.03 241.874 140.849L242.996 132.41L259.609 133.627L254.487 130.255C250.974 120.483 256.527 115.612 256.527 115.612Z" fill="white"/>
<path d="M208.414 140.177L205.392 139.671V147.769L207.788 148.16L208.414 140.177Z" fill="#407BFF"/>
<path opacity="0.6" d="M208.414 140.177L205.392 139.671V147.769L207.788 148.16L208.414 140.177Z" fill="white"/>
<path d="M214.523 147.689C214.531 147.245 214.509 146.802 214.457 146.361L214.367 145.694L215.014 146.075L215.4 146.306C215.526 146.363 215.657 146.412 215.79 146.451C216.019 146.523 216.264 146.523 216.492 146.451C216.713 146.37 216.907 146.229 217.053 146.045C217.223 145.842 217.357 145.612 217.449 145.364L218.015 143.785L218.416 145.459C218.456 145.624 218.481 145.795 218.512 145.96C218.542 146.125 218.612 146.271 218.657 146.426C218.753 146.676 218.914 146.896 219.123 147.063C219.357 147.183 219.629 147.206 219.88 147.128C220.196 147.045 220.497 146.913 220.772 146.737L221.644 146.191L221.293 147.078C221.141 147.455 221.02 147.843 220.932 148.24C220.888 148.438 220.861 148.639 220.852 148.841C220.83 149.048 220.875 149.255 220.982 149.433C220.806 149.291 220.686 149.093 220.641 148.872C220.584 148.656 220.554 148.433 220.551 148.21C220.541 148.035 220.541 147.859 220.551 147.684C220.405 147.766 220.255 147.84 220.1 147.904C219.873 147.998 219.628 148.043 219.382 148.037C219.137 148.03 218.895 147.974 218.672 147.869C218.248 147.632 217.918 147.257 217.735 146.807V146.742C217.464 147.05 217.1 147.264 216.699 147.349C216.297 147.435 215.878 147.389 215.505 147.218C215.358 147.151 215.215 147.074 215.079 146.987C215.079 146.987 215.079 147.022 215.079 147.042C215.043 147.279 214.994 147.513 214.934 147.744C214.872 147.977 214.789 148.204 214.683 148.421C214.583 148.639 214.434 148.831 214.247 148.982C214.359 148.786 214.433 148.569 214.462 148.345C214.497 148.128 214.517 147.909 214.523 147.689Z" fill="#407BFF"/>
<path d="M196.597 136.384C196.988 136.422 197.382 136.379 197.755 136.258C198.139 136.144 198.506 135.975 198.842 135.757C199.162 135.52 199.435 135.226 199.649 134.89C199.875 134.557 200.056 134.194 200.185 133.813L200.516 132.811L201.077 133.698C201.317 134.07 201.607 134.407 201.939 134.7C202.209 134.967 202.564 135.13 202.942 135.161H203.062L203.212 135.131C203.317 135.131 203.418 135.081 203.523 135.056C203.732 134.987 203.935 134.9 204.129 134.795C204.521 134.576 204.884 134.306 205.207 133.993L206.079 133.156L205.898 134.304C205.797 134.917 205.759 135.538 205.783 136.158C205.793 136.45 205.852 136.738 205.958 137.01C206.006 137.129 206.092 137.229 206.203 137.292C206.314 137.356 206.443 137.38 206.57 137.361H206.795L206.725 137.546C206.578 137.924 206.428 138.3 206.274 138.674C206.319 138.338 206.374 138.002 206.434 137.672H206.339C206.239 137.664 206.14 137.647 206.043 137.621C205.951 137.574 205.863 137.52 205.778 137.461C205.713 137.391 205.643 137.316 205.582 137.241C205.39 136.936 205.262 136.595 205.207 136.238C205.143 135.908 205.107 135.573 205.096 135.236C204.936 135.369 204.769 135.493 204.595 135.607C204.36 135.752 204.112 135.874 203.854 135.973C203.578 136.087 203.285 136.153 202.987 136.168C202.367 136.159 201.771 135.924 201.313 135.507C201.116 135.342 200.933 135.161 200.767 134.966C200.669 135.138 200.561 135.305 200.446 135.467C200.146 135.881 199.772 136.236 199.343 136.514C198.916 136.774 198.446 136.957 197.955 137.055C197.64 137.116 197.319 137.14 196.998 137.125C197.038 137.226 197.083 137.326 197.118 137.431C197.206 137.72 197.275 138.015 197.324 138.313C197.377 138.612 197.391 138.917 197.364 139.22C197.349 139.522 197.257 139.815 197.098 140.072C197.185 139.798 197.207 139.509 197.164 139.225C197.126 138.944 197.06 138.667 196.968 138.398C196.776 137.874 196.532 137.371 196.242 136.895L195.926 136.359L196.597 136.384Z" fill="#407BFF"/>
<path d="M140.393 166L274.041 166C274.49 166 274.92 165.766 275.237 165.348C275.555 164.931 275.733 164.365 275.733 163.775V158.363L138.701 158.363V163.775C138.701 164.365 138.879 164.931 139.196 165.348C139.514 165.766 139.944 166 140.393 166Z" fill="#407BFF"/>
<path opacity="0.2" d="M275.737 162.176L138.701 162.176V158.358L275.737 158.358V162.176Z" fill="black"/>
<path d="M278.606 159.355H135.827C135.393 159.355 134.977 159.129 134.67 158.726C134.363 158.323 134.19 157.776 134.189 157.205C134.189 156.634 134.361 156.086 134.669 155.682C134.976 155.277 135.393 155.05 135.827 155.05H278.606C279.041 155.05 279.458 155.277 279.765 155.682C280.072 156.086 280.245 156.634 280.245 157.205C280.244 157.776 280.071 158.323 279.764 158.726C279.457 159.129 279.04 159.355 278.606 159.355Z" fill="#407BFF"/>
<path d="M231.355 151.628V153.717C231.355 154.66 230.218 155.05 229.276 155.05H155.821C154.889 155.05 153.782 154.66 153.782 153.717V151.628H231.355Z" fill="#263238"/>
<path opacity="0.4" d="M231.355 151.628V153.717C231.355 154.66 230.218 155.05 229.276 155.05H155.821C154.889 155.05 153.782 154.66 153.782 153.717V151.628H231.355Z" fill="white"/>
<path opacity="0.2" d="M206.33 151.628V153.717C206.33 154.66 205.212 155.05 204.27 155.05H155.821C154.889 155.05 153.782 154.66 153.782 153.717V151.628H206.33Z" fill="black"/>
<path d="M141.489 111.879L150.234 151.543C150.391 152.18 150.754 152.748 151.267 153.158C151.78 153.567 152.414 153.796 153.07 153.808H200.842C202.11 153.808 202.932 152.62 202.636 151.302L193.902 111.939C193.606 110.646 192.343 110 191.06 110H143.293C142.01 110.005 141.204 110.586 141.489 111.879Z" fill="#263238"/>
<path opacity="0.4" d="M141.489 111.879L150.234 151.543C150.391 152.18 150.754 152.748 151.267 153.158C151.78 153.567 152.414 153.796 153.07 153.808H199.219C200.501 153.808 201.308 152.62 201.023 151.302L192.278 111.939C191.992 110.646 190.72 110 189.437 110H143.293C142.01 110.005 141.204 110.586 141.489 111.879Z" fill="white"/>
<path opacity="0.2" d="M165.042 132.039C165.042 135.437 168.68 138.198 171.351 138.198C174.022 138.198 175.601 135.437 174.859 132.039C174.117 128.641 171.446 126 168.846 125.895C169.607 129.293 167.979 132.039 165.338 132.039C165.239 132.048 165.14 132.048 165.042 132.039Z" fill="black"/>
</svg>
