<svg width="413" height="1113" viewBox="0 0 413 1113" fill="none" xmlns="http://www.w3.org/2000/svg">
<path d="M26 181.285C26 174.478 29.7785 168.233 35.8087 165.075L199.22 79.4785C204.57 76.6758 210.959 76.6938 216.294 79.5267L377.349 165.052C383.328 168.228 387.066 174.445 387.066 181.215V842.23C387.066 854.354 375.49 863.127 363.818 859.849L39.3523 768.732C31.4564 766.514 26 759.315 26 751.113V181.285Z" fill="#333333"/>
<path d="M61 507.3C61 496.641 69.6409 488 80.3 488H207.497H332.7C343.359 488 352 496.641 352 507.3V1073.78C352 1089.8 333.615 1098.84 320.924 1089.07L68.5244 894.701C63.7798 891.048 61 885.398 61 879.41V507.3Z" fill="white"/>
<rect y="348" width="413" height="104" fill="#EB5757"/>
<path d="M0 452H27L26.325 471L0 452Z" fill="#CA3030"/>
<path d="M413 452H386L386.675 471L413 452Z" fill="#CA3030"/>
<path d="M351.5 938.5H368.5L351.5 950.5V938.5Z" fill="#CA3030"/>
<path fill-rule="evenodd" clip-rule="evenodd" d="M258.5 898C247.178 898 238 907.178 238 918.5C238 929.822 247.178 939 258.5 939H264.434L286.177 914.966C287.659 913.328 290.189 913.201 291.827 914.684C293.465 916.166 293.592 918.695 292.11 920.333L275.222 939H288.434L310.177 914.966C311.659 913.328 314.189 913.201 315.827 914.684C317.465 916.166 317.592 918.695 316.11 920.333L299.222 939H312.434L334.177 914.966C335.659 913.328 338.189 913.201 339.827 914.684C341.465 916.166 341.592 918.695 340.11 920.333L323.222 939H368V898H258.5Z" fill="#EB5757"/>
<path d="M102.015 66.3867L207 5.7735L311.985 66.3867V187.613L207 248.227L102.015 187.613V66.3867Z" fill="white" stroke="#EB5757" stroke-width="10"/>
<path d="M228.01 150.983H190.725V169.33H228.01V150.983Z" fill="#ECEBE4"/>
<path d="M228.01 158.275H190.725V162.156H228.01V158.275Z" fill="#D3D2CD"/>
<path d="M243.301 168.741H175.905V172.27H243.301V168.741Z" fill="#1E0F46"/>
<path d="M256.592 157.099C256.592 157.687 256.122 158.157 255.534 158.157H160.026C159.438 158.157 158.967 157.687 158.967 157.099V97.9438C158.967 97.3558 159.438 96.8854 160.026 96.8854H255.534C256.122 96.8854 256.592 97.3558 256.592 97.9438V157.099Z" fill="#1E0F46"/>
<path d="M253.299 100.061H162.143V151.571H253.299V100.061Z" fill="#EB5757"/>
<path d="M253.299 99.9432H162.143V104.765H253.299V99.9432Z" fill="#FFFFFD"/>
<path d="M243.889 104.647H170.494V149.219H243.889V104.647Z" fill="#FFFFFD"/>
<path d="M198.252 106.294H173.787V145.926H198.252V106.294Z" fill="#FFBCBC"/>
<path d="M219.424 106.294H201.193V107.94H219.424V106.294Z" fill="#CBE1FF"/>
<path d="M211.309 109.351H201.193V110.998H211.309V109.351Z" fill="#CBE1FF"/>
<path d="M219.424 112.527H201.193V114.173H219.424V112.527Z" fill="#CBE1FF"/>
<path d="M212.838 115.584H201.193V117.231H212.838V115.584Z" fill="#CBE1FF"/>
<path d="M206.251 119.348H201.193V121.347H206.251V119.348Z" fill="#868BE9"/>
<path d="M219.424 125.816H201.193V127.462H219.424V125.816Z" fill="#CBE1FF"/>
<path d="M211.309 128.874H201.193V130.52H211.309V128.874Z" fill="#CBE1FF"/>
<path d="M219.424 132.049H201.193V133.695H219.424V132.049Z" fill="#CBE1FF"/>
<path d="M212.838 135.107H201.193V136.753H212.838V135.107Z" fill="#CBE1FF"/>
<path d="M206.251 138.87H201.193V140.869H206.251V138.87Z" fill="#868BE9"/>
<path d="M240.478 106.294H223.776V146.397H240.478V106.294Z" fill="#290000"/>
<path d="M240.008 101.589H173.317V103.118H240.008V101.589Z" fill="#6BD4E5"/>
<path d="M210.72 155.452C210.72 156.511 209.897 157.334 208.838 157.334C207.78 157.334 206.957 156.511 206.957 155.452C206.957 154.394 207.78 153.571 208.838 153.571C209.897 153.571 210.72 154.394 210.72 155.452Z" fill="#CBE1FF"/>
<path d="M165.201 102.413C165.201 102.883 164.848 103.354 164.26 103.354C163.79 103.354 163.319 103.001 163.319 102.413C163.319 101.942 163.672 101.472 164.26 101.472C164.731 101.59 165.201 101.942 165.201 102.413Z" fill="#FD6BCD"/>
<path d="M168.024 102.413C168.024 102.883 167.671 103.354 167.083 103.354C166.612 103.354 166.142 103.001 166.142 102.413C166.142 101.942 166.495 101.472 167.083 101.472C167.671 101.59 168.024 101.942 168.024 102.413Z" fill="#EDDE00"/>
<path d="M170.847 102.413C170.847 102.883 170.494 103.354 169.906 103.354C169.436 103.354 168.965 103.001 168.965 102.413C168.965 101.942 169.318 101.472 169.906 101.472C170.494 101.59 170.847 101.942 170.847 102.413Z" fill="#868BE9"/>
<path d="M201.463 74.1718C201.463 74.1718 198.111 72.7357 197.473 73.2144C196.835 73.5336 195.558 75.9272 201.144 75.6081L201.463 74.1718Z" fill="#FE7A42"/>
<path d="M228.595 65.8738L222.051 80.8741L200.824 75.7676L201.144 74.0123L218.061 75.2889L224.605 62.3631C224.605 62.3631 227.956 56.7779 229.712 59.4907C230.67 60.7673 229.872 62.6823 228.595 65.8738Z" fill="white"/>
<path d="M230.031 50.714C230.031 50.714 232.745 50.8735 233.383 52.6289C234.021 54.3842 234.819 55.3417 237.054 56.4587C239.288 57.5758 242.799 59.6503 242.64 61.8844C242.48 65.3951 245.034 66.8312 244.236 68.7462C243.597 70.6611 241.044 70.0228 240.246 69.2249C239.448 68.2675 233.543 64.278 232.585 62.6822C231.627 61.0865 229.393 62.5226 228.435 61.4056C227.318 60.2886 227.637 58.3736 227.158 57.7353C225.243 55.5013 226.201 53.2672 227.318 51.6714C228.755 50.2352 230.031 50.714 230.031 50.714Z" fill="#11141B"/>
<path d="M244.076 82.3102L226.041 83.7464L204.814 86.7784C204.814 86.7784 200.186 86.938 200.505 98.7467L200.186 120.29H202.58C202.58 120.29 206.889 105.289 208.006 94.5977C208.006 94.5977 226.68 95.7147 233.064 93.0019C239.448 90.1295 245.512 83.1081 244.076 82.3102Z" fill="#E59929"/>
<path d="M244.076 82.4698L211.039 92.3636C211.039 92.3636 206.57 93.4806 210.241 105.289L215.987 127.311L218.381 126.513C218.381 126.513 218.381 110.555 216.785 99.385C216.785 99.385 234.5 98.5871 242.001 95.5552C248.705 93.0019 246.311 85.8209 244.076 82.4698Z" fill="#F7AE30"/>
<path d="M237.692 59.1715C237.692 59.1715 239.926 60.7673 241.522 65.0759C243.118 69.544 242.001 75.7675 242.001 75.7675L245.193 84.2251L226.041 83.7464L224.924 75.9271L226.68 72.576L224.764 69.544L227.956 59.0119L237.692 59.1715Z" fill="#29B9E6"/>
<path d="M218.7 125.875L215.188 126.513L215.667 129.066L215.188 130.183L210.56 134.811L211.837 134.492L216.784 132.258L217.423 132.417L219.338 131.779L218.7 125.875Z" fill="#7A92CE"/>
<path d="M202.899 119.332L199.388 118.694L199.069 121.088L198.111 121.885L192.366 124.439L193.643 124.598L198.909 124.279L199.229 124.758L201.144 124.917L202.899 119.332Z" fill="#7A92CE"/>
<path d="M231.946 55.6609L234.181 59.1715C234.181 59.1715 230.51 63.9589 230.35 61.8844C230.191 59.9694 229.393 56.2992 229.393 56.2992L231.946 55.6609Z" fill="#FE7A42"/>
<path d="M230.51 51.1926C230.989 51.831 232.106 53.2672 231.947 54.3842C231.787 55.5012 231.627 57.5757 230.67 58.3736C229.553 59.1715 228.914 57.8949 228.595 57.5757C228.276 57.2566 226.201 53.1076 227.797 51.3522C229.074 50.2352 230.191 50.7139 230.51 51.1926Z" fill="#FF8155"/>
<path d="M228.914 52.1501C228.914 52.1501 230.67 54.0651 232.425 54.0651C232.425 54.0651 231.627 50.3948 229.233 50.5544C229.233 50.5544 226.52 51.1927 227.318 54.5438C227.158 54.7034 229.074 53.4268 228.914 52.1501Z" fill="#191D26"/>
<path d="M225.562 88.6933C225.562 88.6933 222.211 90.1295 222.051 90.9274C221.892 91.5657 222.69 94.119 226.36 89.8104L225.562 88.6933Z" fill="#FE7A42"/>
<path d="M242.161 66.1929L245.991 82.1506L225.722 90.2891L225.083 89.0125L239.447 80.0762L237.053 65.7142C237.053 65.7142 235.936 60.9269 239.128 60.4482C239.128 60.4482 241.363 63.0014 242.161 66.1929Z" fill="white"/>
<path d="M159.561 175.916L158.671 176.17L158.926 177.568L158.671 178.331L156.638 181L160.832 178.458L159.561 175.916Z" fill="#DB2C39"/>
<path d="M160.197 174.391L161.086 174.518L161.341 175.916L161.595 176.552L164.264 178.712L159.561 177.187L160.197 174.391Z" fill="#DB2C39"/>
<path d="M153.078 135.882L152.57 157.742L158.671 177.568L160.451 176.679L157.273 159.013L163.883 136.644L153.078 135.882Z" fill="#1E0F46"/>
<path d="M159.307 136.899L161.468 158.25L159.307 175.789H161.468L165.79 157.869L169.73 135.882L159.307 136.899Z" fill="#1E0F46"/>
<path d="M132.105 102.202C132.105 102.202 131.469 99.4061 130.834 99.1519C130.325 99.0248 128.165 99.279 131.088 102.711L132.105 102.202Z" fill="#F7AE30"/>
<path d="M151.807 113.768L139.35 117.962L130.834 102.71L132.105 101.948L140.494 112.624L151.68 109.446C151.68 109.446 155.366 108.048 156.129 110.59C156.129 110.59 154.349 112.751 151.807 113.768Z" fill="white"/>
<path d="M169.603 115.293L181.806 119.995L190.958 104.998L189.686 104.236L180.916 114.657L169.857 111.099C169.857 111.099 166.171 109.574 165.408 112.115C165.408 111.988 167.061 114.276 169.603 115.293Z" fill="white"/>
<path d="M152.57 139.186L170.238 137.661L168.84 124.571L172.272 111.607L164.391 108.811H152.062L152.57 126.858V139.186Z" fill="#EB5757"/>
<path d="M160.578 105.761L160.07 109.319C160.07 109.319 164.646 111.861 164.01 110.209C163.502 108.684 162.866 105.507 162.866 105.507L160.578 105.761Z" fill="#F7AE30"/>
<path d="M160.196 101.821C159.942 102.583 159.561 103.981 160.069 104.871C160.578 105.761 161.34 107.286 162.484 107.54C163.628 107.794 164.137 106.778 164.264 106.396C164.518 105.634 164.264 101.821 162.484 101.185C161.086 100.55 160.323 101.313 160.196 101.821Z" fill="#F7AE30"/>
<path d="M163.12 101.821C163.12 101.821 162.485 102.584 161.213 102.456C160.069 102.329 160.324 103.473 160.324 103.6C160.324 103.727 160.705 105.38 160.324 105.38C159.942 105.507 159.18 103.473 159.561 102.075C160.069 100.55 162.23 100.169 163.12 101.821Z" fill="#171B23"/>
<path d="M160.705 105.888C160.705 105.888 161.976 106.905 163.247 106.65C164.01 106.523 164.264 105.125 164.264 104.744C164.264 104.49 164.9 107.286 163.247 107.54C161.468 107.921 160.705 105.888 160.705 105.888Z" fill="#171B23"/>
<path d="M189.56 104.49C189.56 104.49 190.322 101.694 190.958 101.567C191.466 101.44 193.627 101.694 190.576 105.125L189.56 104.49Z" fill="#F7AE30"/>
</svg>
