<!-- <svg width="362" height="784" viewBox="0 0 362 784" fill="none" xmlns="http://www.w3.org/2000/svg">
<path d="M0 104.285C0 97.4781 3.77853 91.2333 9.80867 88.0747L173.22 2.47847C178.57 -0.324215 184.959 -0.30616 190.294 2.52672L351.349 88.0524C357.328 91.2277 361.066 97.4447 361.066 104.215V765.23C361.066 777.354 349.49 786.127 337.818 782.849L13.3523 691.732C5.45642 689.514 0 682.315 0 674.113V104.285Z" fill="#333333"/>
</svg> -->

<svg width="413" height="1038" viewBox="0 0 413 1038" fill="none" xmlns="http://www.w3.org/2000/svg">
<path d="M26 106.285C26 99.4781 29.7785 93.2333 35.8087 90.0747L199.22 4.47847C204.57 1.67578 210.959 1.69384 216.294 4.52672L377.349 90.0524C383.328 93.2277 387.066 99.4447 387.066 106.215V767.23C387.066 779.354 375.49 788.127 363.818 784.849L39.3523 693.732C31.4564 691.514 26 684.315 26 676.113V106.285Z" fill="#333333"/>
<path d="M61 432.3C61 421.641 69.6409 413 80.3 413H207.497H332.7C343.359 413 352 421.641 352 432.3V1001.55C352 1017.04 334.666 1026.22 321.852 1017.51L69.4521 845.987C64.1651 842.394 61 836.416 61 830.024V432.3Z" fill="white"/>
<rect y="273" width="413" height="104" fill="#FFB456"/>
<path d="M0 377H27L26.325 396L0 377Z" fill="#E38611"/>
<path d="M413 377H386L386.675 396L413 377Z" fill="#E38611"/>
<path d="M351.5 862.5H368.5L351.5 874.5V862.5Z" fill="#E38611"/>
<path fill-rule="evenodd" clip-rule="evenodd" d="M258.5 822C247.178 822 238 831.178 238 842.5C238 853.822 247.178 863 258.5 863H264.434L286.177 838.966C287.659 837.328 290.189 837.201 291.827 838.684C293.465 840.166 293.592 842.695 292.11 844.333L275.222 863H288.434L310.177 838.966C311.659 837.328 314.189 837.201 315.827 838.684C317.465 840.166 317.592 842.695 316.11 844.333L299.222 863H312.434L334.177 838.966C335.659 837.328 338.189 837.201 339.827 838.684C341.465 840.166 341.592 842.695 340.11 844.333L323.222 863H368V822H258.5Z" fill="#FFB456"/>
</svg>
