<svg width="128" height="131" viewBox="0 0 128 131" fill="none" xmlns="http://www.w3.org/2000/svg">
<path d="M99.0104 100.983H61.7246V119.33H99.0104V100.983Z" fill="#ECEBE4"/>
<path d="M99.0104 108.275H61.7246V112.156H99.0104V108.275Z" fill="#D3D2CD"/>
<path d="M114.301 118.741H46.9045V122.27H114.301V118.741Z" fill="#1E0F46"/>
<path d="M127.592 107.099C127.592 107.687 127.122 108.157 126.534 108.157H31.0256C30.4375 108.157 29.967 107.687 29.967 107.099V47.9438C29.967 47.3558 30.4375 46.8854 31.0256 46.8854H126.534C127.122 46.8854 127.592 47.3558 127.592 47.9438V107.099Z" fill="#1E0F46"/>
<path d="M124.299 50.0607H33.1428V101.571H124.299V50.0607Z" fill="#EB5757"/>
<path d="M124.299 49.9432H33.1428V54.7649H124.299V49.9432Z" fill="#FFFFFD"/>
<path d="M114.889 54.6473H41.4939V99.2192H114.889V54.6473Z" fill="#FFFFFD"/>
<path d="M69.2525 56.2938H44.7874V95.9263H69.2525V56.2938Z" fill="#FFBCBC"/>
<path d="M90.4243 56.2938H72.1931V57.9402H90.4243V56.2938Z" fill="#CBE1FF"/>
<path d="M82.3085 59.3514H72.1931V60.9979H82.3085V59.3514Z" fill="#CBE1FF"/>
<path d="M90.4243 62.5267H72.1931V64.1732H90.4243V62.5267Z" fill="#CBE1FF"/>
<path d="M83.8376 65.5845H72.1931V67.231H83.8376V65.5845Z" fill="#CBE1FF"/>
<path d="M77.2508 69.3478H72.1931V71.3471H77.2508V69.3478Z" fill="#868BE9"/>
<path d="M90.4243 75.816H72.1931V77.4625H90.4243V75.816Z" fill="#CBE1FF"/>
<path d="M82.3085 78.8736H72.1931V80.5201H82.3085V78.8736Z" fill="#CBE1FF"/>
<path d="M90.4243 82.0489H72.1931V83.6954H90.4243V82.0489Z" fill="#CBE1FF"/>
<path d="M83.8376 85.1066H72.1931V86.753H83.8376V85.1066Z" fill="#CBE1FF"/>
<path d="M77.2508 88.87H72.1931V90.8692H77.2508V88.87Z" fill="#868BE9"/>
<path d="M111.478 56.2938H94.7761V96.3967H111.478V56.2938Z" fill="#290000"/>
<path d="M111.008 51.5895H44.3171V53.1183H111.008V51.5895Z" fill="#6BD4E5"/>
<path d="M81.7204 105.452C81.7204 106.511 80.8971 107.334 79.8385 107.334C78.7799 107.334 77.9565 106.511 77.9565 105.452C77.9565 104.394 78.7799 103.571 79.8385 103.571C80.8971 103.571 81.7204 104.394 81.7204 105.452Z" fill="#CBE1FF"/>
<path d="M36.201 52.4128C36.201 52.8832 35.8482 53.3537 35.2601 53.3537C34.7896 53.3537 34.3191 53.0009 34.3191 52.4128C34.3191 51.9424 34.672 51.472 35.2601 51.472C35.7305 51.5896 36.201 51.9424 36.201 52.4128Z" fill="#FD6BCD"/>
<path d="M39.0238 52.4128C39.0238 52.8832 38.6709 53.3537 38.0828 53.3537C37.6123 53.3537 37.1418 53.0009 37.1418 52.4128C37.1418 51.9424 37.4947 51.472 38.0828 51.472C38.6709 51.5896 39.0238 51.9424 39.0238 52.4128Z" fill="#EDDE00"/>
<path d="M41.847 52.4128C41.847 52.8832 41.4942 53.3537 40.9061 53.3537C40.4356 53.3537 39.9651 53.0009 39.9651 52.4128C39.9651 51.9424 40.318 51.472 40.9061 51.472C41.4942 51.5896 41.847 51.9424 41.847 52.4128Z" fill="#868BE9"/>
<path d="M72.4629 24.1718C72.4629 24.1718 69.1113 22.7357 68.4729 23.2144C67.8345 23.5336 66.5577 25.9272 72.1437 25.6081L72.4629 24.1718Z" fill="#FE7A42"/>
<path d="M99.5949 15.8738L93.0513 30.8741L71.8245 25.7676L72.1437 24.0123L89.0613 25.2889L95.6049 12.3631C95.6049 12.3631 98.9565 6.77791 100.712 9.49072C101.67 10.7673 100.872 12.6823 99.5949 15.8738Z" fill="white"/>
<path d="M101.031 0.713953C101.031 0.713953 103.745 0.873501 104.383 2.62885C105.021 4.3842 105.819 5.3417 108.054 6.45874C110.288 7.57578 113.799 9.65028 113.64 11.8844C113.48 15.3951 116.034 16.8312 115.236 18.7462C114.597 20.6611 112.044 20.0228 111.246 19.2249C110.448 18.2675 104.543 14.278 103.585 12.6822C102.627 11.0865 100.393 12.5226 99.4353 11.4056C98.3181 10.2886 98.6373 8.37365 98.1585 7.73534C96.2433 5.50126 97.2009 3.2672 98.3181 1.67143C99.7545 0.235231 101.031 0.713953 101.031 0.713953Z" fill="#11141B"/>
<path d="M115.076 32.3102L97.0412 33.7464L75.8144 36.7784C75.8144 36.7784 71.186 36.938 71.5052 48.7467L71.186 70.2896H73.58C73.58 70.2896 77.8892 55.2894 79.0064 44.5977C79.0064 44.5977 97.6796 45.7147 104.064 43.0019C110.448 40.1295 116.512 33.1081 115.076 32.3102Z" fill="#E59929"/>
<path d="M115.076 32.4698L82.039 42.3636C82.039 42.3636 77.5702 43.4806 81.241 55.2893L86.9865 77.311L89.3805 76.5131C89.3805 76.5131 89.3805 60.5554 87.7845 49.385C87.7845 49.385 105.5 48.5871 113.001 45.5552C119.705 43.0019 117.311 35.8209 115.076 32.4698Z" fill="#F7AE30"/>
<path d="M108.692 9.1715C108.692 9.1715 110.926 10.7673 112.522 15.0759C114.118 19.544 113.001 25.7675 113.001 25.7675L116.193 34.2251L97.0412 33.7464L95.924 25.9271L97.6796 22.576L95.7644 19.544L98.9564 9.01192L108.692 9.1715Z" fill="#29B9E6"/>
<path d="M89.6997 75.8748L86.1884 76.5131L86.6673 79.0664L86.1884 80.1834L81.5601 84.8111L82.8369 84.492L87.7844 82.2579L88.4229 82.4175L90.3381 81.7792L89.6997 75.8748Z" fill="#7A92CE"/>
<path d="M73.8993 69.3321L70.3881 68.6938L70.0689 71.0875L69.1113 71.8854L63.3657 74.4386L64.6425 74.5982L69.9093 74.279L70.2285 74.7578L72.1437 74.9173L73.8993 69.3321Z" fill="#7A92CE"/>
<path d="M102.946 5.66086L105.181 9.17153C105.181 9.17153 101.51 13.9589 101.35 11.8844C101.191 9.96943 100.393 6.29916 100.393 6.29916L102.946 5.66086Z" fill="#FE7A42"/>
<path d="M101.51 1.19265C101.989 1.83096 103.106 3.26715 102.947 4.38419C102.787 5.50123 102.627 7.57573 101.67 8.37362C100.553 9.17151 99.9142 7.89489 99.595 7.57573C99.2758 7.25658 97.201 3.10758 98.797 1.35223C100.074 0.235193 101.191 0.713915 101.51 1.19265Z" fill="#FF8155"/>
<path d="M99.914 2.15015C99.914 2.15015 101.67 4.06509 103.425 4.06509C103.425 4.06509 102.627 0.394796 100.233 0.554373C100.233 0.554373 97.52 1.19268 98.318 4.5438C98.1584 4.70338 100.074 3.42676 99.914 2.15015Z" fill="#191D26"/>
<path d="M96.5624 38.6933C96.5624 38.6933 93.2108 40.1295 93.0512 40.9274C92.8916 41.5657 93.6896 44.119 97.3604 39.8104L96.5624 38.6933Z" fill="#FE7A42"/>
<path d="M113.161 16.1929L116.991 32.1506L96.7219 40.2891L96.0835 39.0125L110.447 30.0762L108.053 15.7142C108.053 15.7142 106.936 10.9269 110.128 10.4482C110.128 10.4482 112.363 13.0014 113.161 16.1929Z" fill="white"/>
<path d="M30.5613 125.916L29.6715 126.17L29.9257 127.568L29.6715 128.331L27.6377 131L31.8324 128.458L30.5613 125.916Z" fill="#DB2C39"/>
<path d="M31.1966 124.391L32.0863 124.518L32.3406 125.916L32.5948 126.552L35.2641 128.712L30.561 127.187L31.1966 124.391Z" fill="#DB2C39"/>
<path d="M24.0783 85.8818L23.5698 107.742L29.6712 127.568L31.4507 126.679L28.2729 109.013L34.8827 86.6444L24.0783 85.8818Z" fill="#1E0F46"/>
<path d="M30.3069 86.8986L32.4678 108.25L30.3069 125.789H32.4678L36.7896 107.869L40.73 85.8818L30.3069 86.8986Z" fill="#1E0F46"/>
<path d="M3.10502 52.2021C3.10502 52.2021 2.46946 49.4061 1.83391 49.1519C1.32546 49.0248 -0.835414 49.279 2.08815 52.7105L3.10502 52.2021Z" fill="#F7AE30"/>
<path d="M22.8071 63.7676L10.3502 67.9617L1.83374 52.7105L3.10485 51.9479L11.4942 62.6238L22.68 59.4464C22.68 59.4464 26.3662 58.0484 27.1289 60.5903C27.1289 60.5903 25.3493 62.7509 22.8071 63.7676Z" fill="white"/>
<path d="M40.6029 65.2927L52.8055 69.9952L61.9575 54.9982L60.6864 54.2357L51.9158 64.6573L40.8571 61.0987C40.8571 61.0987 37.1709 59.5735 36.4082 62.1154C36.4082 61.9883 38.0606 64.276 40.6029 65.2927Z" fill="white"/>
<path d="M23.57 89.1863L41.2384 87.6612L39.8402 74.5706L43.2722 61.6071L35.3913 58.811H23.0615L23.57 76.8582V89.1863Z" fill="#EB5757"/>
<path d="M31.578 55.7608L31.0696 59.3194C31.0696 59.3194 35.6456 61.8612 35.01 60.209C34.5016 58.6839 33.866 55.5066 33.866 55.5066L31.578 55.7608Z" fill="#F7AE30"/>
<path d="M31.1963 51.8209C30.9421 52.5835 30.5608 53.9815 31.0692 54.8711C31.5777 55.7608 32.3403 57.2859 33.4843 57.5401C34.6283 57.7943 35.1368 56.7775 35.2639 56.3962C35.5181 55.6337 35.2639 51.8209 33.4843 51.1854C32.0861 50.55 31.3235 51.3125 31.1963 51.8209Z" fill="#F7AE30"/>
<path d="M34.1201 51.821C34.1201 51.821 33.4845 52.5835 32.2134 52.4564C31.0694 52.3293 31.3236 53.4732 31.3236 53.6003C31.3236 53.7273 31.705 55.3795 31.3236 55.3795C30.9423 55.5066 30.1796 53.4731 30.561 52.0751C31.0694 50.55 33.2303 50.1687 34.1201 51.821Z" fill="#171B23"/>
<path d="M31.7048 55.8879C31.7048 55.8879 32.9759 56.9047 34.2471 56.6505C35.0097 56.5234 35.2639 55.1253 35.2639 54.7441C35.2639 54.4899 35.8995 57.2859 34.2471 57.5401C32.4675 57.9214 31.7048 55.8879 31.7048 55.8879Z" fill="#171B23"/>
<path d="M60.5596 54.4898C60.5596 54.4898 61.3222 51.6938 61.9578 51.5667C62.4662 51.4396 64.6271 51.6937 61.5764 55.1253L60.5596 54.4898Z" fill="#F7AE30"/>
</svg>
