<svg width="153" height="114" viewBox="0 0 153 114" fill="none" xmlns="http://www.w3.org/2000/svg">
<path d="M152.085 67.559H88.0107V85.4971H152.085V67.559Z" fill="#19468E"/>
<path d="M151.962 73.6604L88.0107 73.4163V67.437L152.085 67.559L151.962 73.6604Z" fill="#103975"/>
<path d="M147.813 76.467H92.1602V77.8093H147.813V76.467Z" fill="#103975"/>
<path d="M147.813 79.8838H92.1602V81.2261H147.813V79.8838Z" fill="#103975"/>
<path d="M147.813 68.7793H92.1602V72.3181H147.813V68.7793Z" fill="#1D4A9D"/>
<path d="M71.6405 56.1328H32.9521V75.1692H71.6405V56.1328Z" fill="#ECEBE4"/>
<path d="M71.6405 63.6985H32.9521V67.7255H71.6405V63.6985Z" fill="#D3D2CD"/>
<path d="M87.5067 74.5591H17.5747V78.2199H87.5067V74.5591Z" fill="#1E0F46"/>
<path d="M101.298 62.4783C101.298 63.0884 100.809 63.5766 100.199 63.5766H1.09841C0.488181 63.5766 0 63.0884 0 62.4783V1.09824C0 0.488104 0.488181 0 1.09841 0H100.199C100.809 0 101.298 0.488104 101.298 1.09824V62.4783Z" fill="#1E0F46"/>
<path d="M97.8805 3.29474H3.29541V56.743H97.8805V3.29474Z" fill="#29B9E6"/>
<path d="M97.8805 3.17274H3.29541V8.17586H97.8805V3.17274Z" fill="#FFFFFD"/>
<path d="M88.1167 8.05386H11.9604V54.3024H88.1167V8.05386Z" fill="#FFFFFD"/>
<path d="M40.7634 9.76224H15.3779V50.8856H40.7634V9.76224Z" fill="#868BE9"/>
<path d="M62.7315 9.76224H43.8145V11.4706H62.7315V9.76224Z" fill="#CBE1FF"/>
<path d="M54.3104 12.935H43.8145V14.6434H54.3104V12.935Z" fill="#CBE1FF"/>
<path d="M62.7315 16.2297H43.8145V17.9381H62.7315V16.2297Z" fill="#CBE1FF"/>
<path d="M55.8969 19.4024H43.8145V21.1108H55.8969V19.4024Z" fill="#CBE1FF"/>
<path d="M49.0624 23.3073H43.8145V25.3818H49.0624V23.3073Z" fill="#868BE9"/>
<path d="M62.7315 30.0189H43.8145V31.7273H62.7315V30.0189Z" fill="#CBE1FF"/>
<path d="M54.3104 33.1916H43.8145V34.9H54.3104V33.1916Z" fill="#CBE1FF"/>
<path d="M62.7315 36.4863H43.8145V38.1947H62.7315V36.4863Z" fill="#CBE1FF"/>
<path d="M55.8969 39.6591H43.8145V41.3675H55.8969V39.6591Z" fill="#CBE1FF"/>
<path d="M49.0624 43.564H43.8145V45.6385H49.0624V43.564Z" fill="#868BE9"/>
<path d="M84.5775 9.76224H67.2471V51.3738H84.5775V9.76224Z" fill="#F7AE30"/>
<path d="M84.0894 4.88112H14.8896V6.46747H84.0894V4.88112Z" fill="#6BD4E5"/>
<path d="M53.6999 60.7699C53.6999 61.8681 52.8456 62.7224 51.7472 62.7224C50.6487 62.7224 49.7944 61.8681 49.7944 60.7699C49.7944 59.6716 50.6487 58.8174 51.7472 58.8174C52.8456 58.8174 53.6999 59.6716 53.6999 60.7699Z" fill="#CBE1FF"/>
<path d="M6.46835 5.73529C6.46835 6.2234 6.10222 6.71153 5.49199 6.71153C5.00381 6.71153 4.51562 6.34543 4.51562 5.73529C4.51562 5.24718 4.88176 4.75908 5.49199 4.75908C5.98017 4.88111 6.46835 5.24718 6.46835 5.73529Z" fill="#FD6BCD"/>
<path d="M9.39755 5.73529C9.39755 6.2234 9.03141 6.71153 8.42119 6.71153C7.933 6.71153 7.44482 6.34543 7.44482 5.73529C7.44482 5.24718 7.81096 4.75908 8.42119 4.75908C9.03141 4.88111 9.39755 5.24718 9.39755 5.73529Z" fill="#EDDE00"/>
<path d="M12.3268 5.73529C12.3268 6.2234 11.9606 6.71153 11.3504 6.71153C10.8622 6.71153 10.374 6.34543 10.374 5.73529C10.374 5.24718 10.7402 4.75908 11.3504 4.75908C11.9606 4.88111 12.3268 5.24718 12.3268 5.73529Z" fill="#868BE9"/>
<path d="M69.1827 45.8955C69.1827 45.8955 63.8675 43.5848 62.712 44.278C61.7876 44.9712 59.4766 48.6682 68.7205 48.2061L69.1827 45.8955Z" fill="#F7AE30"/>
<path d="M113.091 32.2628L102.461 56.5245L68.0273 48.4372L68.4895 45.4334L95.9901 47.513L106.621 26.4862C106.621 26.4862 111.242 17.2436 114.478 21.4027C116.096 23.7134 115.402 27.4104 113.091 32.2628Z" fill="#140B35"/>
<path d="M102.692 62.301L76.1159 105.741L72.6494 105.048L83.9732 64.1495L102.692 62.301Z" fill="#6A76CC"/>
<path d="M119.562 55.8312C119.562 55.8312 129.499 73.8542 109.394 73.6232C89.5193 73.3921 85.1285 74.3163 85.1285 74.3163L100.15 96.9606L98.7632 100.427C98.7632 100.427 68.9517 68.5398 68.4895 64.8428C68.2584 61.1457 62.7121 57.4487 119.562 55.8312Z" fill="#757ED8"/>
<path d="M100.381 95.3432L96.9146 99.0402L99.2255 101.351L99.6877 103.199L98.07 111.98L99.2255 110.593L103.154 104.124L103.847 103.893L105.696 101.813L100.381 95.3432Z" fill="#F2994A"/>
<path d="M77.0402 105.279L71.9561 104.586L71.4939 108.052L70.3384 109.438L62.25 113.366H64.0988L71.725 112.673L72.1872 113.135L74.9603 113.366L77.0402 105.279Z" fill="#F2994A"/>
<path d="M102.46 21.8648C102.692 23.0201 98.5318 23.7132 98.3007 22.5579C97.6074 19.5541 97.6074 17.2435 97.6074 17.2435L100.612 15.3949C100.381 15.3949 101.767 19.5541 102.46 21.8648Z" fill="#F7AE30"/>
<path d="M98.3008 18.8609C98.0697 18.8609 95.5276 19.7853 94.8343 18.6299C94.141 17.4746 93.4477 12.6222 93.9099 11.2359C94.3721 9.84948 96.2209 8.92523 97.3764 9.1563C98.3007 9.38736 101.536 11.698 101.074 16.5503C100.843 16.5503 99.9184 18.3988 98.3008 18.8609Z" fill="#F7AE30"/>
<path d="M93.2168 11.4669C93.2168 11.4669 93.679 13.0844 94.8345 12.6223C95.99 12.1601 97.8387 11.4669 98.3009 12.3912C98.7631 13.3154 98.3009 16.3193 99.2253 17.0125C99.9186 17.7057 101.767 18.1678 101.767 17.0125C101.998 15.8571 101.305 8.92523 97.3765 8.00098C97.6076 8.23204 93.9101 8.00098 93.2168 11.4669Z" fill="#171B23"/>
<path d="M89.5195 24.6375L97.3768 57.6797L122.104 59.2971L112.629 20.4784L89.5195 24.6375Z" fill="#FFB456"/>
<path d="M56.2414 48.8992C56.2414 48.8992 51.6195 47.2818 50.9262 47.975C50.2329 48.6682 48.6152 51.9031 56.2414 50.7478V48.8992Z" fill="#F7AE30"/>
<path d="M91.1373 34.3422L84.4355 55.138L55.5483 51.2099L55.7794 48.6682L78.4269 48.2061L85.3599 30.1831C85.3599 30.1831 88.3641 22.0959 91.3684 25.5618C92.755 27.1793 92.5239 29.952 91.1373 34.3422Z" fill="#140B35"/>
</svg>
