<svg width="147" height="95" viewBox="0 0 147 95" fill="none" xmlns="http://www.w3.org/2000/svg">
<path d="M73.3315 69.0166L62.5724 68.4904L63.6198 77.8464C63.6198 77.8464 71.0865 79.2696 74.4189 73.9577L73.3315 69.0166Z" fill="#EBB376"/>
<path d="M55.6367 71.7528L58.0872 78.538L63.6196 77.8464L62.5723 68.4904L55.6367 71.7528Z" fill="#EBB376"/>
<path d="M83.6592 84.2009C79.5623 82.0614 75.8282 79.2896 72.5944 75.9875L73.331 69.0168C83.4988 70.5202 89.367 72.67 89.367 72.67C89.367 72.67 85.5985 59.1648 89.0462 54.2437L98.5125 55.9576C98.5125 55.9576 108.57 76.8644 101.805 84.2009H83.6592Z" fill="#407BFF"/>
<path opacity="0.7" d="M83.6747 84.2008C79.5756 82.0621 75.8384 79.2922 72.5999 75.9924L73.3315 69.0118C83.1736 70.455 88.9916 72.5196 89.3674 72.6549C89.2422 72.1538 85.6792 59.0695 89.0567 54.2387L98.523 55.9525C100.469 60.1506 102.014 64.5231 103.138 69.0118C104.491 74.7196 104.887 80.8683 101.81 84.2008H83.6747Z" fill="white"/>
<path opacity="0.2" d="M91.457 84.2009C88.1146 63.0234 91.0762 57.6414 91.0762 57.6414L103.103 69.0018C104.456 74.7096 104.852 80.8584 101.775 84.1909L91.457 84.2009Z" fill="black"/>
<path d="M93.5469 84.2007C91.2918 73.4968 88.7612 56.7392 89.0368 54.2436C89.4377 50.6155 109.172 35.0707 126.3 46.386C129.808 48.6962 131.597 73.617 132.208 84.2007H93.5469Z" fill="#407BFF"/>
<path opacity="0.7" d="M93.5469 84.2008C91.2918 73.4968 88.7612 56.7343 89.0368 54.2387C89.4377 50.6156 109.177 35.0708 126.305 46.3911C127.573 47.238 128.615 51.0616 129.477 56.1129C130.62 62.9883 131.412 72.1188 131.883 79.0042C132.013 80.9536 132.123 82.7175 132.208 84.2008H93.5469Z" fill="white"/>
<path d="M102.001 0.398034C107.939 -2.00234 121.941 6.61196 123.169 21.9714C124.396 37.3308 116.609 33.0762 116.609 33.0762C116.609 33.0762 115.221 38.9344 109.548 37.1253C109.548 37.1253 104.863 42.4322 100.503 40.2724C100.503 40.2724 95.0756 45.925 92.1641 42.9434C92.1641 42.9434 88.997 46.5564 86.1055 43.8203C83.214 41.0842 74.9505 13.1516 87.9145 6.69213C100.879 0.232662 102.001 0.398034 102.001 0.398034Z" fill="#263238"/>
<path d="M101.991 63.2639L102.562 63.2138C101.901 55.8172 103.529 52.5449 103.564 52.5148L103.063 52.2492C102.968 52.3645 101.314 55.6569 101.991 63.2639Z" fill="#263238"/>
<path d="M99.3052 63.3289C103.239 54.0632 98.804 51.9033 98.6236 51.8031L98.3881 52.3042C98.4282 52.3042 102.477 54.3538 98.779 63.0733L99.3052 63.3289Z" fill="#263238"/>
<path d="M103.148 54.0132C103.148 54.0132 110.74 47.9997 122.527 44.6121L126.31 46.3861C126.31 46.3861 132.654 38.5335 122.081 35.9627C111.507 33.392 97.1248 40.4729 93.5168 46.5364C89.9087 52.6 99.7908 54.5544 99.7908 54.5544C99.7908 54.5544 100.698 53.3216 103.148 54.0132Z" fill="#407BFF"/>
<path opacity="0.6" d="M103.148 54.0132C103.148 54.0132 110.74 47.9997 122.527 44.6121L126.31 46.3861C126.31 46.3861 132.654 38.5335 122.081 35.9627C111.507 33.392 97.1248 40.4729 93.5168 46.5364C89.9087 52.6 99.7908 54.5544 99.7908 54.5544C99.7908 54.5544 100.698 53.3216 103.148 54.0132Z" fill="white"/>
<path d="M98.5681 63.2188C98.5681 63.3179 98.5975 63.4148 98.6525 63.4972C98.7076 63.5796 98.7858 63.6439 98.8774 63.6818C98.969 63.7197 99.0697 63.7296 99.1669 63.7103C99.2642 63.691 99.3535 63.6432 99.4235 63.5731C99.4936 63.5031 99.5413 63.4138 99.5607 63.3166C99.58 63.2194 99.5701 63.1186 99.5322 63.027C99.4942 62.9355 99.43 62.8572 99.3476 62.8021C99.2652 62.7471 99.1683 62.7177 99.0692 62.7177C98.9363 62.7177 98.8088 62.7705 98.7148 62.8644C98.6209 62.9584 98.5681 63.0859 98.5681 63.2188Z" fill="white"/>
<path d="M101.821 63.2188C101.821 63.3179 101.85 63.4148 101.905 63.4972C101.96 63.5796 102.038 63.6439 102.13 63.6818C102.221 63.7197 102.322 63.7296 102.419 63.7103C102.517 63.691 102.606 63.6432 102.676 63.5731C102.746 63.5031 102.794 63.4138 102.813 63.3166C102.832 63.2194 102.823 63.1186 102.785 63.027C102.747 62.9355 102.682 62.8572 102.6 62.8021C102.518 62.7471 102.421 62.7177 102.322 62.7177C102.189 62.7177 102.061 62.7705 101.967 62.8644C101.873 62.9584 101.821 63.0859 101.821 63.2188Z" fill="white"/>
<path d="M107.182 25.6798C107.644 31.0568 109.292 40.6283 113.667 42.7179C113.667 42.7179 108.776 43.7202 101.139 53.3969C96.7942 50.35 98.4379 48.2704 98.4379 48.2704C103.519 44.9379 102.201 40.8287 100.147 37.2457L107.182 25.6798Z" fill="#EBB376"/>
<path opacity="0.2" d="M104.321 30.3952L100.157 37.2606C100.654 38.0893 101.075 38.9615 101.414 39.8664C103.419 38.794 105.614 35.3964 105.198 33.0712C105.068 32.1339 104.771 31.2275 104.321 30.3952Z" fill="black"/>
<path d="M107.769 14.3092C109.167 22.7581 109.939 26.296 106.807 31.7332C102.101 39.9165 91.6728 40.3024 87.8392 32.5651C84.3915 25.5995 82.6826 12.9511 89.8787 7.36863C96.9797 1.8663 106.381 5.85523 107.769 14.3092Z" fill="#EBB376"/>
<path d="M90.4648 2.66315C84.9875 5.69995 79.7708 15.1912 87.5633 12.8209C88.7409 15.101 92.9353 13.0113 95.3758 10.2752C95.7867 12.1745 100.277 14.0787 103.584 11.1371C101.986 13.4423 104.707 19.2603 107.538 18.2581C110.369 17.2558 116.724 15.9379 111.096 6.96779C105.468 -2.0023 96.3129 -0.589136 90.4648 2.66315Z" fill="#263238"/>
<path d="M92.4594 22.2821C92.4594 22.2821 91.9582 25.6346 91.0061 27.4537C92.0735 28.0701 93.5117 27.2482 93.5117 27.2482L92.4594 22.2821Z" fill="#D58745"/>
<path d="M97.9216 28.7516C97.566 28.9252 97.1953 29.0661 96.8141 29.1725C96.7884 29.18 96.7614 29.1819 96.7349 29.1782C96.7084 29.1745 96.683 29.1653 96.6603 29.1511C96.6376 29.1369 96.6181 29.1181 96.6032 29.0959C96.5883 29.0737 96.5782 29.0486 96.5736 29.0222C96.5599 28.967 96.5685 28.9087 96.5976 28.8599C96.6267 28.8111 96.6739 28.7758 96.7289 28.7616C97.5912 28.52 98.3882 28.088 99.0612 27.4973C99.7343 26.9067 100.266 26.1725 100.618 25.3489C100.625 25.3223 100.638 25.2975 100.655 25.2759C100.672 25.2544 100.694 25.2365 100.718 25.2234C100.742 25.2103 100.769 25.2022 100.797 25.1997C100.824 25.1972 100.852 25.2002 100.878 25.2086C100.929 25.2298 100.969 25.2699 100.991 25.3205C101.013 25.371 101.013 25.428 100.993 25.4792C100.407 26.9107 99.3132 28.0757 97.9216 28.7516Z" fill="#263238"/>
<path d="M112.033 20.3828C111.561 22.1394 110.411 23.637 108.836 24.5471C106.796 25.6646 105.328 23.7503 105.478 21.37C105.634 19.2202 106.886 16.0531 109.121 15.9278C111.357 15.8025 112.639 18.1628 112.033 20.3828Z" fill="#EBB376"/>
<path d="M98.4975 14.5398C98.4472 14.5631 98.3925 14.5752 98.3371 14.5752C98.2817 14.5752 98.227 14.5631 98.1768 14.5398C97.732 14.293 97.2334 14.1593 96.7248 14.1505C96.2162 14.1418 95.7132 14.2583 95.2602 14.4897C95.2152 14.5185 95.1647 14.5376 95.1119 14.5456C95.0591 14.5536 95.0051 14.5505 94.9536 14.5363C94.9021 14.5221 94.8541 14.4972 94.8129 14.4633C94.7716 14.4294 94.7379 14.3872 94.714 14.3394C94.6644 14.2384 94.6539 14.1228 94.6844 14.0145C94.715 13.9063 94.7844 13.8132 94.8794 13.753C95.4447 13.4434 96.0789 13.2811 96.7235 13.2811C97.3681 13.2811 98.0023 13.4434 98.5676 13.753C98.6625 13.8096 98.732 13.9004 98.7618 14.0067C98.7916 14.113 98.7795 14.2267 98.728 14.3243C98.6793 14.4213 98.5975 14.4977 98.4975 14.5398Z" fill="#263238"/>
<path d="M85.0329 17.8371C84.9877 17.863 84.9376 17.879 84.8858 17.8842C84.834 17.8894 84.7817 17.8836 84.7323 17.8672C84.6801 17.8498 84.632 17.8221 84.5908 17.7857C84.5495 17.7494 84.516 17.7052 84.4922 17.6556C84.4684 17.6061 84.4547 17.5523 84.4521 17.4974C84.4494 17.4425 84.4578 17.3876 84.4767 17.336C84.6596 16.6849 84.9904 16.0847 85.4433 15.5823C85.8961 15.08 86.4588 14.6889 87.0875 14.4395C87.1391 14.4212 87.194 14.4142 87.2486 14.4191C87.3031 14.4239 87.356 14.4405 87.4035 14.4676C87.4511 14.4947 87.4922 14.5317 87.5242 14.5762C87.5561 14.6206 87.5781 14.6714 87.5886 14.7252C87.6147 14.834 87.5994 14.9486 87.5457 15.0468C87.492 15.1449 87.4037 15.2197 87.298 15.2564C86.8026 15.4612 86.3607 15.7768 86.0062 16.179C85.6518 16.5812 85.3943 17.0593 85.2534 17.5765C85.2358 17.6325 85.2073 17.6843 85.1694 17.729C85.1316 17.7738 85.0852 17.8105 85.0329 17.8371Z" fill="#263238"/>
<path d="M95.8017 20.0672C96.0472 20.7387 96.6085 21.1446 97.0545 20.9792C97.5005 20.8139 97.6608 20.1423 97.4153 19.4759C97.1697 18.8094 96.6085 18.3984 96.1675 18.5638C95.7265 18.7292 95.5611 19.4007 95.8017 20.0672Z" fill="#263238"/>
<path d="M96.3633 18.5285L94.6996 18.4934C94.6996 18.4934 95.8722 19.4456 96.3633 18.5285Z" fill="#263238"/>
<path d="M87.3879 22.738C87.6334 23.4045 88.1947 23.8104 88.6357 23.65C89.0766 23.4897 89.247 22.8082 89.0015 22.1467C88.7559 21.4852 88.1947 21.0743 87.7487 21.2346C87.3027 21.395 87.1423 22.0665 87.3879 22.738Z" fill="#263238"/>
<path d="M87.9443 21.1946L86.2856 21.1595C86.2856 21.1595 87.4582 22.1167 87.9443 21.1946Z" fill="#263238"/>
<path d="M96.5936 24.8028C97.1113 24.8044 97.6236 24.6968 98.097 24.487C98.5978 24.2572 99.0428 23.9213 99.401 23.5025C99.7592 23.0837 100.022 22.5921 100.172 22.0616C100.495 20.918 100.406 19.6974 99.9219 18.6122C99.4375 17.5271 98.5877 16.6463 97.5207 16.1233C97.0263 15.8762 96.4834 15.7418 95.9309 15.7297C95.3784 15.7176 94.8301 15.8282 94.3254 16.0534C93.8208 16.2787 93.3723 16.613 93.0124 17.0323C92.6525 17.4517 92.39 17.9456 92.2438 18.4786C91.9106 19.6211 92.0014 20.8455 92.4994 21.9263C92.9696 23.0248 93.8225 23.9151 94.8998 24.4319C95.4306 24.6776 96.0087 24.8042 96.5936 24.8028ZM95.8068 16.3087C96.3057 16.322 96.7961 16.4416 97.245 16.6595C98.1861 17.1251 98.9353 17.9043 99.3635 18.863C99.7916 19.8217 99.8718 20.8998 99.5903 21.9113C99.4697 22.3666 99.2487 22.7892 98.9435 23.1481C98.6383 23.5069 98.2567 23.7929 97.8267 23.9851C97.3966 24.1773 96.929 24.2708 96.4581 24.2588C95.9872 24.2468 95.525 24.1296 95.1053 23.9158C94.1567 23.4618 93.404 22.6806 92.9855 21.7158C92.545 20.759 92.4649 19.6752 92.76 18.664C92.8857 18.2115 93.1087 17.7918 93.4133 17.4343C93.718 17.0769 94.097 16.7902 94.524 16.5944C94.9253 16.4057 95.3634 16.3082 95.8068 16.3087Z" fill="#263238"/>
<path d="M88.2551 27.3583C88.7732 27.3629 89.286 27.2552 89.7585 27.0426C90.2595 26.8122 90.7048 26.4762 91.0638 26.0575C91.4228 25.6389 91.6869 25.1475 91.8382 24.6172C92.1588 23.473 92.0687 22.2527 91.5836 21.1679C91.0985 20.0832 90.2488 19.2026 89.1822 18.6789C88.6884 18.4308 88.1456 18.2957 87.5932 18.2831C87.0407 18.2706 86.4924 18.381 85.9878 18.6064C85.4833 18.8319 85.0351 19.1666 84.6759 19.5865C84.3166 20.0064 84.0551 20.5009 83.9104 21.0342C83.5729 22.1758 83.6619 23.4011 84.161 24.4819C84.4993 25.301 85.0641 26.0067 85.7893 26.5162C86.5144 27.0256 87.3698 27.3178 88.2551 27.3583ZM87.4583 18.8393C87.9642 18.8427 88.4634 18.9555 88.9216 19.17C89.8694 19.6275 90.6216 20.4099 91.0414 21.3749C91.4847 22.3293 91.5649 23.4125 91.2669 24.4218C91.1412 24.8749 90.9183 25.2953 90.6137 25.6536C90.309 26.0119 89.93 26.2995 89.5029 26.4964C87.749 27.2832 85.5741 26.2609 84.6621 24.2263C84.2237 23.2689 84.1437 22.1859 84.4366 21.1745C84.5632 20.7224 84.7865 20.3031 85.0911 19.9458C85.3957 19.5885 85.7742 19.3015 86.2005 19.1049C86.5988 18.9389 87.027 18.857 87.4583 18.8643V18.8393Z" fill="#263238"/>
<path d="M91.8332 22.1317C91.8442 22.096 91.8629 22.0631 91.888 22.0354C91.9131 22.0077 91.944 21.9858 91.9785 21.9713C92.1986 21.933 92.4252 21.9663 92.6249 22.0666L92.8755 21.5654C92.5351 21.3914 92.1421 21.3503 91.773 21.4502C91.6574 21.491 91.5524 21.5572 91.4657 21.6439C91.379 21.7307 91.3127 21.8357 91.2719 21.9513L91.8332 22.1317Z" fill="#263238"/>
<path d="M105.538 16.7694L105.709 17.3178L98.9263 19.4376L98.7549 18.8891L105.538 16.7694Z" fill="#263238"/>
<path opacity="0.2" d="M107.127 69.5078C107.127 69.5078 120.311 79.6104 131.882 79.0291C131.411 72.1437 130.619 62.9932 129.477 56.1378C128.294 54.8349 127.518 54.0432 127.518 54.0432L120.502 59.2899L122.211 61.4347C122.211 61.4347 111.592 60.8935 107.894 61.4347L107.127 69.5078Z" fill="black"/>
<path d="M105.764 61.4096L95.2103 59.2548L94.8345 68.6658C94.8345 68.6658 101.996 71.2015 106.095 66.4559L105.764 61.4096Z" fill="#EBB376"/>
<path d="M87.864 61.4397L89.2571 68.5156L94.8346 68.6709L95.2104 59.2599L87.864 61.4397Z" fill="#EBB376"/>
<path d="M105.764 61.4098L105.248 68.671L107.874 69.8487L108.997 61.4098H105.764Z" fill="#407BFF"/>
<path opacity="0.6" d="M105.764 61.4098L105.248 68.671L107.874 69.8487L108.997 61.4098H105.764Z" fill="white"/>
<path d="M122.527 44.612C125.359 45.1119 127.923 46.5956 129.768 48.8014C132.95 52.5397 144.165 63.6446 141.675 72.7099C139.184 81.7752 115.201 75.0301 107.874 69.8485L108.997 61.4096L125.609 62.6273L120.487 59.2548C116.975 49.4829 122.527 44.612 122.527 44.612Z" fill="#407BFF"/>
<path opacity="0.7" d="M122.527 44.612C125.359 45.1119 127.923 46.5956 129.768 48.8014C132.95 52.5397 144.165 63.6446 141.675 72.7099C139.184 81.7752 115.201 75.0301 107.874 69.8485L108.997 61.4096L125.609 62.6273L120.487 59.2548C116.975 49.4829 122.527 44.612 122.527 44.612Z" fill="white"/>
<path d="M74.4141 69.1771L71.3923 68.671V76.7691L73.7877 77.16L74.4141 69.1771Z" fill="#407BFF"/>
<path opacity="0.6" d="M74.4141 69.1771L71.3923 68.671V76.7691L73.7877 77.16L74.4141 69.1771Z" fill="white"/>
<path d="M80.5226 76.6889C80.5312 76.2453 80.5094 75.8016 80.4575 75.3609L80.3673 74.6944L81.0137 75.0753L81.3996 75.3058C81.5264 75.363 81.657 75.4116 81.7904 75.4511C82.0187 75.5234 82.2637 75.5234 82.492 75.4511C82.7127 75.3696 82.9068 75.2292 83.0533 75.0452C83.2227 74.842 83.3565 74.6115 83.4492 74.3637L84.0154 72.7852L84.4163 74.4589C84.4564 74.6243 84.4815 74.7947 84.5115 74.96C84.5416 75.1254 84.6118 75.2707 84.6569 75.4261C84.7528 75.6759 84.9137 75.8956 85.1229 76.0625C85.3568 76.1826 85.6286 76.206 85.8796 76.1277C86.1956 76.0448 86.4966 75.9129 86.7716 75.7368L87.6436 75.1905L87.2928 76.0775C87.141 76.4546 87.0203 76.8434 86.932 77.2401C86.888 77.4379 86.8612 77.6391 86.8518 77.8415C86.8297 78.0475 86.8755 78.2551 86.9821 78.4328C86.8062 78.2915 86.6856 78.0928 86.6413 77.8715C86.584 77.6556 86.5537 77.4334 86.5511 77.2101C86.541 77.0348 86.541 76.8591 86.5511 76.6839C86.4053 76.7664 86.2547 76.84 86.1001 76.9044C85.8725 76.9976 85.6281 77.0425 85.3823 77.0365C85.1365 77.0305 84.8946 76.9735 84.6719 76.8693C84.2482 76.6315 83.9178 76.257 83.7348 75.8069V75.7418C83.4638 76.0505 83.1004 76.2635 82.6987 76.3493C82.2969 76.435 81.8783 76.389 81.5048 76.2178C81.3576 76.1511 81.2152 76.0741 81.0789 75.9873C81.0789 75.9873 81.0789 76.0224 81.0789 76.0425C81.043 76.2787 80.9944 76.5129 80.9335 76.744C80.8725 76.9772 80.7886 77.2038 80.683 77.4205C80.5828 77.6387 80.4336 77.8308 80.247 77.9818C80.3594 77.7856 80.4326 77.5695 80.4625 77.3454C80.4972 77.1281 80.5173 76.9088 80.5226 76.6889Z" fill="#407BFF"/>
<path d="M62.5976 65.3837C62.9879 65.4216 63.3819 65.3789 63.7552 65.2584C64.1397 65.1442 64.5059 64.9754 64.8426 64.7573C65.1622 64.52 65.4357 64.2262 65.6494 63.8903C65.8755 63.5568 66.0558 63.1944 66.1856 62.8129L66.5163 61.8107L67.0776 62.6977C67.3175 63.0697 67.6076 63.407 67.9395 63.6999C68.2091 63.9666 68.5639 64.1298 68.9418 64.1609H69.062L69.2124 64.1309C69.3176 64.1309 69.4178 64.0807 69.5231 64.0557C69.7325 63.9868 69.9354 63.8996 70.1294 63.7951C70.5217 63.5756 70.8839 63.3061 71.2068 62.9933L72.0788 62.1564L71.8984 63.304C71.7975 63.9166 71.7589 64.5378 71.7831 65.1582C71.7929 65.45 71.8522 65.7381 71.9585 66.0101C72.0058 66.129 72.092 66.2285 72.203 66.2922C72.314 66.3559 72.4433 66.3801 72.5699 66.3609H72.7954L72.7253 66.5463C72.5783 66.9238 72.4279 67.2996 72.2742 67.6738C72.3193 67.338 72.3745 67.0023 72.4346 66.6715H72.3394C72.2395 66.6642 72.1405 66.6474 72.0437 66.6214C71.9517 66.5739 71.863 66.5204 71.7781 66.4611C71.713 66.3909 71.6428 66.3158 71.5827 66.2406C71.3903 65.9357 71.2624 65.5946 71.2068 65.2383C71.1437 64.9077 71.1069 64.5726 71.0966 64.2361C70.9364 64.3687 70.7691 64.4925 70.5955 64.6069C70.3602 64.7517 70.1119 64.8742 69.8538 64.9728C69.5782 65.0872 69.2849 65.1534 68.9869 65.1682C68.3669 65.1593 67.7716 64.924 67.3131 64.5067C67.1164 64.3417 66.9337 64.1607 66.7669 63.9655C66.6688 64.138 66.5617 64.3052 66.4462 64.4666C66.1463 64.8807 65.7726 65.2357 65.3437 65.514C64.916 65.7738 64.4463 65.9569 63.9556 66.0552C63.6405 66.1164 63.3192 66.14 62.9985 66.1253C63.0385 66.2256 63.0836 66.3258 63.1187 66.431C63.2067 66.7201 63.2753 67.0148 63.3242 67.313C63.3775 67.6122 63.391 67.9172 63.3643 68.22C63.3489 68.5218 63.2576 68.8149 63.0987 69.0719C63.1849 68.7983 63.2072 68.5086 63.1638 68.225C63.1261 67.9437 63.0606 67.6667 62.9684 67.3982C62.776 66.8745 62.5326 66.3709 62.2418 65.8948L61.9261 65.3586L62.5976 65.3837Z" fill="#407BFF"/>
<path d="M6.39272 95.0001L140.041 95.0001C140.49 95.0001 140.92 94.7657 141.237 94.3484C141.555 93.9311 141.733 93.3652 141.733 92.7751V87.363L4.70068 87.363L4.70068 92.7751C4.70068 93.3652 4.87895 93.9311 5.19627 94.3484C5.51359 94.7657 5.94397 95.0001 6.39272 95.0001Z" fill="#407BFF"/>
<path opacity="0.2" d="M141.737 91.1764L4.70068 91.1764V87.3578L141.737 87.3578V91.1764Z" fill="black"/>
<path d="M144.606 88.355H1.82729C1.39334 88.355 0.977097 88.1287 0.669891 87.7257C0.362686 87.3226 0.18959 86.7758 0.188583 86.2052C0.188583 85.6337 0.361237 85.0856 0.668549 84.6815C0.975876 84.2774 1.39267 84.0504 1.82729 84.0504H144.606C145.041 84.0504 145.458 84.2774 145.765 84.6815C146.072 85.0856 146.245 85.6337 146.245 86.2052C146.244 86.7758 146.071 87.3226 145.764 87.7257C145.457 88.1287 145.04 88.355 144.606 88.355Z" fill="#407BFF"/>
<path d="M97.3555 80.6278V82.7175C97.3555 83.6596 96.2179 84.0505 95.2758 84.0505H21.8212C20.8892 84.0505 19.7817 83.6596 19.7817 82.7175V80.6278H97.3555Z" fill="#263238"/>
<path opacity="0.4" d="M97.3555 80.6278V82.7175C97.3555 83.6596 96.2179 84.0505 95.2758 84.0505H21.8212C20.8892 84.0505 19.7817 83.6596 19.7817 82.7175V80.6278H97.3555Z" fill="white"/>
<path opacity="0.2" d="M72.3296 80.6278V82.7175C72.3296 83.6596 71.2121 84.0505 70.27 84.0505H21.8214C20.8894 84.0505 19.7819 83.6596 19.7819 82.7175V80.6278H72.3296Z" fill="black"/>
<path d="M7.48947 40.8788L16.2341 80.5427C16.3909 81.1801 16.7541 81.7479 17.267 82.1575C17.78 82.5672 18.414 82.7958 19.0704 82.8077H66.8424C68.1103 82.8077 68.9321 81.6201 68.6365 80.3021L59.9019 40.9389C59.6062 39.646 58.3434 38.9996 57.0605 38.9996H9.2935C8.01063 39.0046 7.20383 39.5859 7.48947 40.8788Z" fill="#263238"/>
<path opacity="0.4" d="M7.48925 40.8788L16.2338 80.5427C16.3907 81.1801 16.7538 81.7479 17.2668 82.1575C17.7798 82.5672 18.4138 82.7958 19.0702 82.8077H65.2186C66.5014 82.8077 67.3082 81.6201 67.0226 80.3021L58.278 40.9389C57.9924 39.646 56.7195 38.9996 55.4367 38.9996H9.29327C8.0104 39.0046 7.20361 39.5859 7.48925 40.8788Z" fill="white"/>
<path opacity="0.2" d="M31.0418 61.039C31.0418 64.4366 34.68 67.1978 37.351 67.1978C40.022 67.1978 41.6005 64.4366 40.8588 61.039C40.1172 57.6414 37.4462 55.0004 34.8454 54.8952C35.6071 58.2928 33.9784 61.039 31.3375 61.039C31.2392 61.0483 31.1402 61.0483 31.0418 61.039Z" fill="black"/>
</svg>
