<svg width="15" height="14" viewBox="0 0 15 14" fill="none" xmlns="http://www.w3.org/2000/svg">
<rect width="15" height="14" rx="1" fill="#263238"/>
<path d="M4 12.6364C3.44772 12.6364 3 12.1886 3 11.6364V2C3 1.44772 3.44772 1 4 1H8.02273C8.88636 1 9.64205 1.17045 10.2898 1.51136C10.9375 1.85227 11.4413 2.33144 11.8011 2.94886C12.161 3.56629 12.3409 4.28788 12.3409 5.11364C12.3409 5.94697 12.1553 6.66856 11.7841 7.27841C11.4167 7.88826 10.8996 8.35795 10.233 8.6875C9.57008 9.01705 8.79545 9.18182 7.90909 9.18182H5.90909C5.35681 9.18182 4.90909 8.7341 4.90909 8.18182V7.72727C4.90909 7.17499 5.35681 6.72727 5.90909 6.72727H7.27273C7.64394 6.72727 7.96023 6.66288 8.22159 6.53409C8.48674 6.40152 8.68939 6.21402 8.82955 5.97159C8.97349 5.72917 9.04545 5.44318 9.04545 5.11364C9.04545 4.7803 8.97349 4.49621 8.82955 4.26136C8.68939 4.02273 8.48674 3.84091 8.22159 3.71591C7.96023 3.58712 7.64394 3.52273 7.27273 3.52273H7C6.44771 3.52273 6 3.97044 6 4.52273V11.6364C6 12.1887 5.55228 12.6364 5 12.6364H4Z" fill="white"/>
<circle cx="11.5" cy="2.5" r="1.5" fill="#407BFF"/>
</svg>
