<svg width="428" height="302" viewBox="0 0 428 302" fill="none" xmlns="http://www.w3.org/2000/svg">
<g clip-path="url(#clip0_45_1474)">
<path opacity="0.4" d="M53.3905 271.508H387.641C398.241 255.276 449.103 174.406 418.178 157.201C383.848 138.053 390.558 133.096 391.336 44.9354C392.212 -50.9037 335.417 -37.7817 241.57 -3.47015C147.724 30.8414 152.197 -10.8573 80.1344 10.0406C8.36342 30.7442 73.8131 111.615 18.9637 171.781C-27.0358 222.131 32.7733 260.427 53.3905 271.508Z" fill="#8DE2FC"/>
<path d="M137.221 -8.0386C137.221 -8.0386 169.508 15.8726 226.886 -7.5526C284.264 -30.8806 114.658 -28.7422 137.221 -8.0386Z" fill="#A4C7D1"/>
<path d="M190.709 209.592H121.758V271.508H190.709V209.592Z" fill="#D2D5FB"/>
<path d="M185.624 229.492V214.718H126.982V229.492H185.624Z" fill="#BABFE8"/>
<path d="M185.636 248.069V233.295H126.994V248.069H185.636Z" fill="#BABFE8"/>
<path d="M185.624 267.4V252.626H126.982V267.4H185.624Z" fill="#BABFE8"/>
<path d="M156.282 225.435C157.893 225.435 159.199 224.13 159.199 222.519C159.199 220.909 157.893 219.604 156.282 219.604C154.67 219.604 153.364 220.909 153.364 222.519C153.364 224.13 154.67 225.435 156.282 225.435Z" fill="#D9DEFF"/>
<path d="M159.199 240.988C159.199 242.64 157.935 243.904 156.282 243.904C154.629 243.904 153.364 242.64 153.364 240.988C153.364 239.335 154.629 238.072 156.282 238.072C157.935 238.072 159.199 239.432 159.199 240.988Z" fill="#D9DEFF"/>
<path d="M159.199 261.497C159.199 263.149 157.935 264.413 156.282 264.413C154.629 264.413 153.364 263.149 153.364 261.497C153.364 259.844 154.629 258.581 156.282 258.581C157.935 258.581 159.199 259.844 159.199 261.497Z" fill="#D9DEFF"/>
<path d="M191.486 29.189H77.5086C73.8131 29.189 70.7983 32.2022 70.7983 35.8958V109.282C70.7983 112.975 73.8131 115.988 77.5086 115.988H191.486C195.182 115.988 198.197 112.975 198.197 109.282V35.8958C198.197 32.2022 195.182 29.189 191.486 29.189Z" fill="#D8D9D9"/>
<path d="M77.5087 110.934C76.5362 110.934 75.8555 110.157 75.8555 109.282V35.8958C75.8555 34.9238 76.6335 34.2434 77.5087 34.2434H191.486C192.459 34.2434 193.14 35.021 193.14 35.8958V109.282C193.14 110.254 192.362 110.934 191.486 110.934H77.5087Z" fill="#D9DEFF"/>
<path d="M191.486 34.1462H158.324C160.074 42.797 166.882 70.985 180.983 85.079H193.14V35.8958C193.14 34.9238 192.459 34.1462 191.486 34.1462Z" fill="#8792ED"/>
<path d="M180.983 85.0789V92.5632H192.945L193.14 85.0789H180.983Z" fill="#1521B8"/>
<path d="M193.14 109.282V92.7579L192.945 92.6606H180.983C180.983 92.6606 175.246 107.435 174.954 110.934L175.148 111.031H191.486C192.459 110.934 193.14 110.254 193.14 109.282Z" fill="#8792ED"/>
<path d="M77.7031 34.1462H110.866C109.115 42.797 102.307 70.985 88.2061 85.079H76.0498V35.8958C76.0498 34.9238 76.8278 34.1462 77.7031 34.1462Z" fill="#8792ED"/>
<path d="M88.2061 85.0789V92.5632H76.2443L76.0498 85.0789H88.2061Z" fill="#1521B8"/>
<path d="M76.0498 109.282V92.7579L76.2443 92.6606H88.2061C88.2061 92.6606 93.9439 107.435 94.2357 110.934L94.0412 111.031H77.7031C76.8278 110.934 76.0498 110.254 76.0498 109.282Z" fill="#8792ED"/>
<path d="M298.851 33.1743H242.446C240.598 33.1743 239.139 34.6323 239.139 36.4791V72.8319C239.139 74.6787 240.598 76.1367 242.446 76.1367H298.851C300.699 76.1367 302.158 74.6787 302.158 72.8319V36.4791C302.158 34.6323 300.699 33.1743 298.851 33.1743Z" fill="#8792ED"/>
<path d="M302.158 39.3951V36.4791C302.158 34.6323 300.699 33.1743 298.851 33.1743H242.446C240.598 33.1743 239.139 34.6323 239.139 36.4791V39.3951H302.158Z" fill="#1521B8"/>
<path d="M252.365 45.4214H243.71C243.321 45.4214 242.932 45.8102 242.932 46.199V54.8498C242.932 55.2386 243.321 55.6274 243.71 55.6274H252.365C252.754 55.6274 253.143 55.2386 253.143 54.8498V46.199C253.143 45.713 252.754 45.4214 252.365 45.4214Z" fill="#D9DEFF"/>
<path d="M267.536 45.4214H258.881C258.492 45.4214 258.103 45.8102 258.103 46.199V54.8498C258.103 55.2386 258.492 55.6274 258.881 55.6274H267.536C267.925 55.6274 268.314 55.2386 268.314 54.8498V46.199C268.314 45.713 267.925 45.4214 267.536 45.4214Z" fill="#D8D9D9"/>
<path d="M282.61 45.4214H273.955C273.566 45.4214 273.177 45.8102 273.177 46.199V54.8498C273.177 55.2386 273.566 55.6274 273.955 55.6274H282.61C282.999 55.6274 283.388 55.2386 283.388 54.8498V46.199C283.388 45.713 282.999 45.4214 282.61 45.4214Z" fill="#BABFE8"/>
<path d="M297.198 45.4214H288.542C288.153 45.4214 287.764 45.8102 287.764 46.199V54.8498C287.764 55.2386 288.153 55.6274 288.542 55.6274H297.198C297.587 55.6274 297.976 55.2386 297.976 54.8498V46.199C297.976 45.713 297.587 45.4214 297.198 45.4214Z" fill="#D9DEFF"/>
<path d="M252.365 59.6128H243.71C243.321 59.6128 242.932 60.0016 242.932 60.3904V69.0412C242.932 69.43 243.321 69.8188 243.71 69.8188H252.365C252.754 69.8188 253.143 69.43 253.143 69.0412V60.3904C253.143 60.0016 252.754 59.6128 252.365 59.6128Z" fill="#BABFE8"/>
<path d="M267.536 59.6128H258.881C258.492 59.6128 258.103 60.0016 258.103 60.3904V69.0412C258.103 69.43 258.492 69.8188 258.881 69.8188H267.536C267.925 69.8188 268.314 69.43 268.314 69.0412V60.3904C268.314 60.0016 267.925 59.6128 267.536 59.6128Z" fill="#D9DEFF"/>
<path d="M282.61 59.6128H273.955C273.566 59.6128 273.177 60.0016 273.177 60.3904V69.0412C273.177 69.43 273.566 69.8188 273.955 69.8188H282.61C282.999 69.8188 283.388 69.43 283.388 69.0412V60.3904C283.388 60.0016 282.999 59.6128 282.61 59.6128Z" fill="#D8D9D9"/>
<path d="M297.198 59.6128H288.542C288.153 59.6128 287.764 60.0016 287.764 60.3904V69.0412C287.764 69.43 288.153 69.8188 288.542 69.8188H297.198C297.587 69.8188 297.976 69.43 297.976 69.0412V60.3904C297.976 60.0016 297.587 59.6128 297.198 59.6128Z" fill="#D9DEFF"/>
<path d="M394.546 163.908H194.209V171.198H394.546V163.908Z" fill="#8792ED"/>
<path d="M378.499 171.198H206.463V271.897H378.499V171.198Z" fill="#8792ED"/>
<path d="M378.499 171.198H206.463V181.89H378.499V171.198Z" fill="#BABFE8"/>
<path d="M363.706 46.7835C372.517 37.9771 372.517 23.6992 363.706 14.8928C354.895 6.08639 340.61 6.08638 331.799 14.8928C322.988 23.6991 322.988 37.9771 331.799 46.7835C340.61 55.5899 354.895 55.5899 363.706 46.7835Z" fill="#8792ED"/>
<path d="M347.768 47.4626C356.952 47.4626 364.398 40.021 364.398 30.8414C364.398 21.6618 356.952 14.2202 347.768 14.2202C338.584 14.2202 331.138 21.6618 331.138 30.8414C331.138 40.021 338.584 47.4626 347.768 47.4626Z" fill="#D9DEFF"/>
<path d="M342.517 38.1315C342.322 38.1315 342.127 38.0343 341.933 37.8399C341.641 37.5483 341.738 37.0623 342.03 36.7707L347.185 32.2995V20.6355C347.185 20.2467 347.476 19.8579 347.963 19.8579C348.352 19.8579 348.741 20.1495 348.741 20.6355V32.6883C348.741 32.8827 348.643 33.0771 348.449 33.2715L343.003 37.9371C342.906 38.0343 342.711 38.1315 342.517 38.1315Z" fill="#8792ED"/>
<path d="M282.902 146.023H217.55C214.243 146.023 211.617 143.399 211.617 140.094V104.13C211.617 100.825 214.243 98.2009 217.55 98.2009H282.902C286.209 98.2009 288.834 100.825 288.834 104.13V140.094C288.834 143.399 286.209 146.023 282.902 146.023Z" fill="#8792ED"/>
<path d="M284.944 98.5898C282.708 99.3674 281.054 101.603 281.054 104.13V140.094C281.054 142.621 282.708 144.857 284.944 145.635C287.181 144.857 288.834 142.621 288.834 140.094V104.13C288.834 101.506 287.181 99.3674 284.944 98.5898Z" fill="#BABFE8"/>
<path d="M263.549 158.465H254.991V126H237.875V158.465V163.519H263.549C264.911 163.519 266.078 162.353 266.078 160.992C266.078 159.631 264.911 158.465 263.549 158.465Z" fill="#BABFE8"/>
<path d="M263.355 158.465H254.894V126H237.778V158.465C237.778 161.186 240.015 163.519 242.835 163.519H263.549C265.008 163.519 266.175 162.353 266.078 160.895C265.981 159.534 264.716 158.465 263.355 158.465Z" fill="#BABFE8"/>
<path d="M266.078 160.992C266.078 159.631 264.911 158.465 263.549 158.465H254.991V126H249.156V158.465C249.156 161.186 251.393 163.519 254.213 163.519H263.647C264.911 163.519 266.078 162.353 266.078 160.992Z" fill="#9BA3D3"/>
<path d="M266.369 101.797H228.344C227.469 101.797 226.691 102.575 226.691 103.45C226.691 104.325 227.469 105.102 228.344 105.102H266.369C267.245 105.102 268.023 104.325 268.023 103.45C268.023 102.478 267.245 101.797 266.369 101.797Z" fill="#BABFE8"/>
<path d="M370.428 148.648H306.339V164.005H370.428V148.648Z" fill="#BABFE8"/>
<path d="M366.246 137.858H300.115V148.55H366.246V137.858Z" fill="#8792ED"/>
<path d="M369.844 124.445H306.534V137.858H369.844V124.445Z" fill="#8792ED"/>
<path d="M369.844 133.193H306.534V137.858H369.844V133.193Z" fill="#BABFE8"/>
<path d="M56.8915 222.325L57.9612 222.519C59.2255 219.02 60.4897 213.577 58.5447 207.94C55.2382 198.22 53.6822 185.972 47.3609 176.836C38.8028 164.297 36.7606 137.081 36.7606 137.081C36.7606 137.081 26.3548 158.659 33.4541 179.071C40.5534 199.483 49.0142 204.829 53.2932 208.814C57.864 212.994 57.7667 218.437 56.8915 222.325Z" fill="#BABFE8"/>
<path d="M57.0859 222.325L57.9611 222.519C59.2254 219.02 60.4896 213.577 58.5446 207.94C55.2381 198.22 53.6821 185.972 47.3608 176.836C38.8027 164.297 36.7605 137.081 36.7605 137.081C36.7605 137.081 31.0227 166.241 37.6357 176.447C44.346 186.75 44.6378 184.223 49.4031 193.943C54.1683 203.663 55.7244 206.482 57.1831 212.119C58.2529 215.716 57.6694 219.798 57.0859 222.325Z" fill="#9BA3D3"/>
<path d="M62.435 230.296C62.435 230.296 64.5745 227.088 63.3102 215.23C62.046 203.371 58.6422 191.999 60.5872 178.974C62.5322 166.047 76.6336 133.096 76.7308 130.957C76.8281 128.819 80.5236 168.768 73.1326 184.709C65.8388 200.65 64.8663 206.093 65.158 214.452C65.3525 222.714 64.8663 229.421 64.0883 231.365L62.435 230.296Z" fill="#BABFE8"/>
<path d="M63.991 206.287C64.769 211.633 65.0608 224.95 63.6992 228.157C63.602 228.449 63.4075 228.254 63.213 227.768C63.602 225.533 63.991 221.645 63.3102 215.23C62.046 203.371 58.6422 191.999 60.5872 178.974C62.5322 166.046 76.6336 133.096 76.7308 130.957C76.7308 130.957 74.2996 158.173 67.103 177.03C61.9487 190.444 63.3102 200.941 63.991 206.287Z" fill="#9BA3D3"/>
<path d="M70.1178 227.768C70.1178 227.768 63.8937 210.758 74.2995 195.984C84.6081 181.307 101.238 162.353 101.53 154.868C101.53 154.868 105.906 190.541 92.3882 200.552C78.8703 210.564 69.437 212.119 71.771 227.671L70.1178 227.768Z" fill="#BABFE8"/>
<path d="M84.6082 193.36C69.5343 205.51 68.3673 219.604 70.7013 226.116C70.8958 226.602 71.1876 226.894 71.6738 227.088C69.6316 212.119 78.9676 210.467 92.3882 200.552C105.906 190.541 101.53 154.868 101.53 154.868C101.53 154.868 99.682 181.21 84.6082 193.36Z" fill="#9BA3D3"/>
<path d="M51.5428 231.851L48.1391 219.506C35.4965 174.6 0 173.142 0 173.142C3.69552 173.92 22.9511 188.597 25.9659 201.622C27.3274 207.745 33.6487 212.119 39.192 215.035C43.1793 217.076 46.0968 220.77 47.361 225.144C48.4308 228.838 49.0143 232.142 49.0143 232.142L51.5428 231.851Z" fill="#BABFE8"/>
<path d="M32.2872 202.205C36.469 210.175 41.8178 213.383 46.583 214.452C32.7735 174.503 0 173.142 0 173.142C0.778005 173.336 2.04226 174.017 3.79277 175.086C10.6003 178.877 24.9934 188.208 32.2872 202.205Z" fill="#9BA3D3"/>
<path d="M78.3842 221.062H41.2345C36.761 221.062 33.4544 225.047 34.2325 229.421L40.8455 266.94C41.3317 269.564 43.5685 271.508 46.2915 271.508H73.1327C75.8557 271.508 78.0925 269.564 78.5787 266.94L85.1918 229.421C86.1643 225.047 82.7605 221.062 78.3842 221.062Z" fill="#8792ED"/>
<path d="M85.1916 226.31C84.3163 223.394 81.6906 221.159 78.384 221.159H41.2343C37.9278 221.159 35.2048 223.394 34.4268 226.31H85.1916Z" fill="#BABFE8"/>
<path d="M78.3841 221.062H68.9508C73.4244 221.062 76.7309 225.047 75.9529 229.421L69.3398 266.94C68.8536 269.564 66.6168 271.508 63.8938 271.508H73.3271C76.0501 271.508 78.2869 269.564 78.7731 266.94L85.3862 229.421C86.1642 225.047 82.7604 221.062 78.3841 221.062Z" fill="#BABFE8"/>
<path d="M328.318 96.8403C331.528 97.4235 346.699 99.9507 349.714 102.089C352.242 103.839 364.593 139.997 362.064 141.844C359.439 143.691 343.976 145.44 343.976 145.44L345.726 158.465L328.027 162.45C323.748 163.422 319.371 163.519 315.092 162.742L300.213 160.02L303.228 122.404L283.389 133.776C281.93 134.554 280.179 133.971 279.401 132.61L258.201 96.0627L264.23 93.2439L282.416 115.017L299.921 101.117C299.921 101.117 303.908 98.3955 318.399 97.1319L328.318 96.8403Z" fill="#BA95F4"/>
<path d="M263.549 93.6326C263.549 93.6326 260.437 87.3146 259.368 87.023C258.298 86.7314 259.27 89.5502 259.27 89.5502C259.27 89.5502 255.478 86.6342 252.463 87.023C249.448 87.4118 258.006 92.855 258.881 95.771C258.881 95.8682 263.744 93.6326 263.549 93.6326Z" fill="#FFA683"/>
<path d="M280.277 140.775H311.786C313.439 140.775 314.898 139.414 314.898 137.664V118.905C314.898 117.252 313.536 115.794 311.786 115.794H280.277C278.623 115.794 277.165 117.155 277.165 118.905V137.664C277.165 139.414 278.526 140.775 280.277 140.775Z" fill="#1521B8"/>
<path d="M297.198 140.775H323.845C325.304 140.775 326.471 139.608 326.471 138.15V138.442C326.471 136.984 325.304 135.817 323.845 135.817H297.198C295.74 135.817 294.573 136.984 294.573 138.442V138.15C294.67 139.608 295.837 140.775 297.198 140.775Z" fill="#1521B8"/>
<path d="M317.913 135.817V137.664C317.913 139.317 316.551 140.775 314.898 140.775H311.883C313.536 140.775 314.898 139.414 314.898 137.664V135.817H317.913Z" fill="#171F8A"/>
<path d="M290.293 129.791C290.293 127.458 292.238 125.514 294.572 125.514C296.906 125.514 298.852 127.458 298.852 129.791C298.852 132.124 296.906 134.068 294.572 134.068C292.141 134.165 290.293 132.221 290.293 129.791Z" fill="#E6E1EF"/>
<path opacity="0.42" d="M343.198 128.819L339.599 113.364L346.504 131.443C347.088 132.999 346.212 134.748 344.559 135.04L326.47 139.122L340.669 133.582C342.614 132.901 343.781 130.86 343.198 128.819Z" fill="#1DA7D0"/>
<path d="M343.684 145.537L322.483 147.384L322.191 140.094L344.559 135.04L343.684 145.537Z" fill="#BA95F4"/>
<path opacity="0.42" d="M335.515 148.648C336.001 148.842 336.584 154.966 337.071 160.506L345.434 158.562L343.684 145.537L322.483 147.384C322.483 147.384 334.542 148.259 335.515 148.648Z" fill="#1DA7D0"/>
<path d="M322.483 145.634C322.483 145.634 318.788 146.801 314.12 142.232C313.633 141.746 313.925 140.872 314.703 140.872L322.191 140.774L322.483 145.634Z" fill="#FFA683"/>
<path d="M343.976 261.983L333.472 261.788C331.43 254.596 321.511 178.488 321.511 178.488L308.479 206.287L314.898 261.788L305.075 261.886C305.075 261.886 289.71 213.869 289.71 203.954C289.71 196.373 297.393 171.684 300.991 160.409L301.283 160.312L314.898 162.839C319.177 163.617 323.553 163.519 327.832 162.547L343.781 158.951C345.532 179.752 343.976 261.983 343.976 261.983Z" fill="#6938B7"/>
<path opacity="0.35" d="M343.976 261.983C343.976 261.983 344.754 224.464 344.656 193.943V193.846C344.656 193.165 344.656 192.485 344.656 191.902C344.656 191.61 344.656 191.318 344.656 191.124C344.656 190.735 344.656 190.346 344.656 189.958C344.559 176.739 344.365 165.172 343.976 158.951L337.071 160.506L340.377 261.886L343.878 261.983H343.976Z" fill="#441982"/>
<path d="M312.175 261.886L314.8 261.788L308.479 206.287L321.511 178.488L302.449 205.607L312.175 261.886Z" fill="#441982"/>
<path d="M305.853 261.788C303.519 266.454 292.53 268.787 292.53 268.787C292.53 268.787 291.752 270.148 292.919 271.897C294.183 273.647 305.659 272.675 307.118 272.383C308.576 272.092 309.549 270.925 309.549 270.925C309.549 270.925 310.521 271.994 311.008 272.286C311.591 272.578 314.509 271.994 314.509 271.994C315.189 270.148 314.606 262.955 314.411 261.788H305.853Z" fill="#441982"/>
<path d="M334.153 261.788C331.819 266.454 320.83 268.787 320.83 268.787C320.83 268.787 320.052 270.148 321.219 271.897C322.483 273.647 333.959 272.675 335.418 272.383C336.876 272.092 337.849 270.925 337.849 270.925C337.849 270.925 338.821 271.994 339.308 272.286C339.891 272.578 342.809 271.994 342.809 271.994C343.489 270.148 342.906 262.955 342.711 261.788H334.153Z" fill="#441982"/>
<path d="M327.054 87.9949V96.7429L321.9 100.436L318.399 97.0345L318.496 93.4381C318.885 93.5353 319.371 93.5353 319.857 93.5353C323.261 93.5353 326.081 91.1053 326.859 87.8977C326.957 87.9949 326.957 87.9949 327.054 87.9949Z" fill="#FFA683"/>
<path d="M329.194 82.2601C328.124 81.1909 326.957 82.0657 326.957 82.0657C326.957 82.0657 326.957 82.0657 326.957 82.1629C323.942 81.4825 319.663 78.2749 319.663 78.2749C316.843 80.0245 312.564 81.5797 312.564 81.5797V86.1481C312.564 90.3277 315.773 93.7297 319.76 93.7297C323.164 93.7297 325.984 91.2997 326.762 88.0921C329.388 88.2865 330.166 83.3293 329.194 82.2601Z" fill="#FFA683"/>
<path d="M327.054 91.3969V87.9949C329.388 87.9949 330.166 83.4265 329.096 82.3573C328.026 81.2881 326.859 82.1629 326.859 82.1629C326.859 82.1629 326.859 82.1629 326.859 82.2601C323.845 81.5797 319.663 79.9273 319.663 79.9273C315.967 82.0657 312.564 81.6769 312.564 81.6769C311.494 81.3853 307.409 80.0245 307.507 74.6785C307.701 69.3326 322.191 63.0146 330.166 71.7625C333.375 75.0673 335.223 89.9389 327.054 91.3969Z" fill="#441982"/>
<path d="M319.857 93.6325C319.371 93.6325 318.982 93.5353 318.496 93.4381L318.399 97.0345L320.635 99.1729V94.8961C326.471 94.8961 326.859 87.8005 326.859 87.8005C326.081 91.2025 323.261 93.6325 319.857 93.6325Z" fill="#F48260"/>
<path d="M326.957 82.0658C326.471 82.0658 326.082 81.8714 325.595 81.677C325.693 83.5238 325.79 88.0922 323.359 90.5222C322.775 89.7446 321.414 88.1894 320.052 87.8978C318.788 87.7034 317.037 87.8006 316.065 87.995C315.676 87.995 315.287 88.1894 314.995 88.481L313.731 89.6474C313.439 89.2586 313.147 88.7726 312.855 88.1894C313.731 91.2998 316.551 93.5354 319.76 93.5354C323.164 93.5354 325.984 91.1054 326.762 87.8978C326.957 87.8978 327.151 87.8978 327.346 87.8978L326.957 82.0658ZM321.122 90.7166C318.107 92.0774 316.065 91.0082 315.481 90.3278C315.384 90.1334 315.384 89.939 315.481 89.7446L315.967 89.1614C316.551 88.481 318.399 88.7726 319.177 88.7726C319.955 88.7726 320.636 89.453 321.122 89.939C321.316 90.2306 321.316 90.6194 321.122 90.7166Z" fill="#441982"/>
<path d="M238.459 261.788C237.194 223.394 232.137 153.119 232.137 153.119H193.821C193.821 153.119 188.764 223.394 187.499 261.788H198.391C198.391 261.788 210.742 179.265 213.173 171.684C215.605 179.265 227.664 261.788 227.664 261.788H238.459Z" fill="#1197BF"/>
<path d="M238.459 261.788H235.055L223.968 153.119H232.137C232.04 153.216 237.097 223.491 238.459 261.788Z" fill="#1197BF"/>
<path opacity="0.35" d="M238.459 261.788H235.055L223.968 153.119H232.137C232.04 153.216 237.097 223.491 238.459 261.788Z" fill="#231F20"/>
<path d="M188.666 261.788C186.332 266.454 175.343 268.786 175.343 268.786C175.343 268.786 174.565 270.147 175.732 271.897C176.996 273.646 188.472 272.674 189.931 272.383C191.389 272.091 192.362 270.925 192.362 270.925C192.362 270.925 193.334 271.994 193.821 272.286C194.404 272.577 197.322 271.994 197.322 271.994C198.002 270.147 197.419 262.954 197.224 261.788H188.666Z" fill="#231F20"/>
<path d="M237.097 261.788C239.431 266.454 250.42 268.786 250.42 268.786C250.42 268.786 251.198 270.147 250.031 271.897C248.767 273.646 237.291 272.674 235.833 272.383C234.374 272.091 233.401 270.925 233.401 270.925C233.401 270.925 232.429 271.994 231.943 272.286C231.359 272.577 228.442 271.994 228.442 271.994C227.761 270.147 228.344 262.954 228.539 261.788H237.097Z" fill="#231F20"/>
<path d="M220.953 92.3689L218.425 91.6885H214.34H213.271H209.186L206.658 92.3689L200.142 153.022H213.271H214.34H227.469L220.953 92.3689Z" fill="#D8D9D9"/>
<path d="M206.658 92.3689C206.658 92.3689 190.611 96.8401 187.986 100.534C185.554 104.033 176.316 122.987 176.899 134.359C176.996 135.623 178.066 136.498 179.233 136.303L191.487 133.582L187.11 157.979C187.11 157.979 199.753 160.506 206.852 160.117L206.658 92.3689Z" fill="#1DA7D0"/>
<path d="M220.953 92.3689C220.953 92.3689 237 96.8401 239.626 100.534C242.057 104.033 251.587 122.306 250.907 133.582C250.809 134.845 249.74 135.72 248.573 135.526L236.125 133.582L240.501 157.979C240.501 157.979 227.955 160.798 220.856 160.409L220.953 92.3689Z" fill="#1DA7D0"/>
<path d="M218.328 97.9093L213.854 95.3821L209.672 97.9093L212.298 101.603C212.298 101.603 209.77 139.122 209.672 143.204C209.672 143.788 211.228 145.732 212.687 147.384C213.076 147.87 213.465 148.259 213.854 148.648C214.243 148.259 214.632 147.87 215.021 147.384C216.48 145.732 218.036 143.788 218.036 143.204C217.939 139.219 215.702 101.797 215.702 101.797L218.328 97.9093Z" fill="#BA95F4"/>
<path d="M191.487 133.679L229.414 127.361L227.372 118.516L184.193 122.792L191.487 133.679Z" fill="#1DA7D0"/>
<path d="M228.831 126.389C228.831 126.389 234.374 124.639 236.222 124.834C238.07 125.125 237.194 118.71 227.372 118.516L228.831 126.389Z" fill="#FFA683"/>
<path d="M204.324 120.654C204.324 120.654 201.114 117.349 196.155 117.835C193.432 118.03 191.389 121.918 191.389 121.918L204.324 120.654Z" fill="#FFA683"/>
<path opacity="0.35" d="M189.833 142.913L206.658 131.152L191.487 133.679L189.833 142.913Z" fill="#231F20"/>
<path opacity="0.35" d="M191.389 121.918L188.375 121.82L194.501 112.489L191.389 121.918Z" fill="#231F20"/>
<path opacity="0.35" d="M236.319 124.931C236.319 124.931 239.431 125.028 239.82 124.542C240.112 124.056 235.833 113.558 235.833 113.558C235.833 113.558 239.042 124.056 236.319 124.931Z" fill="#231F20"/>
<path opacity="0.35" d="M240.501 158.076L237.972 144.274L236.027 133.679L220.856 131.054V131.929L231.943 139.997L235.249 159.145C238.361 158.562 240.501 158.076 240.501 158.076Z" fill="#231F20"/>
<path d="M212.979 171.684C210.839 173.433 209.478 175.961 208.992 178.682L194.501 261.788H198.294C198.294 261.788 208.505 192.387 212.979 171.684Z" fill="#231F20"/>
<path d="M217.841 91.2996L214.049 93.6324L209.964 91.2996V83.718H217.841V91.2996Z" fill="#FFA683"/>
<path d="M203.837 77.4972C203.837 77.4972 202.281 71.568 203.837 68.652C205.491 65.6389 208.214 62.3341 210.937 64.1809C210.937 64.1809 212.59 62.0425 218.328 63.4033C224.065 64.7641 226.886 64.8613 228.928 63.7921C230.97 62.7229 229.414 73.2204 225.135 73.8036C225.135 73.8036 224.746 76.5252 223.968 77.4972C223.093 78.4692 212.882 78.9552 212.882 78.9552L203.837 77.4972Z" fill="#231F20"/>
<path d="M212.104 69.8185C211.812 69.5269 211.228 70.8877 209.867 72.1513C208.213 73.512 206.074 74.484 206.074 74.484V80.2188C206.074 80.2188 207.241 87.9948 214.243 87.9948C219.981 87.9948 222.023 80.316 222.023 80.316V75.456V73.7064C222.023 73.512 215.118 73.3176 212.104 69.8185Z" fill="#FFA683"/>
<path d="M217.841 86.7312V88.2864C216.869 88.9668 215.605 89.4528 214.146 89.4528C212.395 89.4528 211.034 88.9668 209.867 88.1892V86.634C210.937 87.4116 212.395 87.8976 214.146 87.8976C215.605 87.8976 216.869 87.4116 217.841 86.7312Z" fill="#F48260"/>
<path d="M209.283 78.1777C209.283 76.6225 208.019 75.3589 206.463 75.3589C204.907 75.3589 203.643 76.6225 203.643 78.1777C203.643 79.7329 205.296 81.3853 206.852 81.3853C208.505 81.4825 209.283 79.7329 209.283 78.1777Z" fill="#FFA683"/>
<path d="M219.3 78.1777C219.3 76.6225 220.564 75.3589 222.12 75.3589C223.676 75.3589 224.941 76.6225 224.941 78.1777C224.941 79.7329 223.287 81.3853 221.731 81.3853C220.175 81.3853 219.3 79.7329 219.3 78.1777Z" fill="#FFA683"/>
<path d="M104.058 263.829V270.147C104.058 271.8 102.891 273.063 101.433 273.063H82.4687C81.399 273.063 81.01 271.605 81.8852 270.925C84.4137 269.078 92.68 266.551 95.403 264.704L104.058 263.829Z" fill="#1DA7D0"/>
<path d="M109.31 201.135C108.046 217.951 104.739 261.885 103.864 264.315C102.794 267.328 94.4305 265.773 94.9168 264.898C95.1113 264.607 96.6673 264.412 97.8343 261.982C98.2233 261.205 98.0288 256.636 98.0288 255.762C97.5425 248.277 94.8195 209.981 94.0415 198.511C97.9315 199.58 103.378 200.747 109.31 201.135Z" fill="#FFA683"/>
<path d="M117.09 263.829V270.147C117.09 271.8 118.257 273.063 119.716 273.063H138.777C139.846 273.063 140.235 271.605 139.36 270.925C136.832 269.078 128.565 266.551 125.842 264.704L117.09 263.829Z" fill="#1DA7D0"/>
<path d="M126.329 264.801C126.815 265.676 118.451 267.329 117.382 264.218C116.506 261.788 113.2 217.951 111.936 201.135C116.895 201.233 122.147 200.649 127.301 198.997C126.523 211.244 123.8 248.277 123.314 255.665C123.217 256.442 123.119 261.108 123.508 261.885C124.481 264.315 126.134 264.51 126.329 264.801Z" fill="#FFA683"/>
<path d="M90.4433 147.967L90.5405 148.161L89.6653 150.008C89.957 149.231 90.2488 148.55 90.4433 147.967Z" fill="#BA95F4"/>
<path d="M134.498 195.984C113.394 207.648 86.9421 195.984 86.9421 195.984C82.9548 175.377 86.7476 158.756 89.7624 150.008C90.0541 149.231 90.2486 148.55 90.4431 147.967C91.5129 145.245 92.2909 143.593 92.4854 143.204C93.6524 143.982 107.754 152.827 127.009 143.204H127.398C127.398 143.204 127.398 143.107 127.301 143.107H127.398C137.221 167.99 134.498 195.984 134.498 195.984Z" fill="#1DA7D0"/>
<path opacity="0.35" d="M134.498 195.984C130.705 198.122 126.718 199.386 122.73 200.26C127.885 186.458 123.217 155.549 121.466 145.537C123.217 144.954 125.162 144.176 127.009 143.204H127.398C127.398 143.204 127.398 143.107 127.301 143.107H127.398C137.221 167.99 134.498 195.984 134.498 195.984Z" fill="#441982"/>
<path d="M109.31 201.135C108.046 217.951 104.739 261.885 103.864 264.315C103.572 265.093 102.794 265.579 101.724 265.87C105.031 254.692 104.739 202.593 104.739 202.593C101.238 202.691 96.8617 200.941 93.9442 199.677C93.8469 198.414 93.9442 199.483 93.8469 198.511C97.9314 199.58 103.377 200.747 109.31 201.135Z" fill="#F48260"/>
<path d="M123.411 261.885C123.119 261.108 123.217 256.539 123.217 255.665C123.703 248.375 126.329 211.244 127.204 198.997C126.62 199.191 125.94 199.386 125.356 199.483C125.064 199.58 124.675 199.677 124.384 199.775C123.995 199.872 123.703 199.969 123.314 200.066C119.424 200.844 115.631 201.233 111.936 201.135C111.936 201.524 112.033 201.913 112.033 202.399C114.172 202.399 119.424 202.302 122.633 201.816C122.147 211.341 119.716 259.844 121.369 263.052C121.855 264.024 123.314 264.801 125.259 265.482C126.037 265.287 126.523 264.996 126.329 264.704C126.134 264.51 124.481 264.315 123.411 261.885Z" fill="#F48260"/>
<path d="M158.519 96.5482C158.519 96.5482 161.825 91.3966 162.798 91.2022C163.77 91.0078 162.603 93.4378 162.603 93.4378C162.603 93.4378 166.201 91.2994 168.827 91.8826C171.453 92.563 163.381 96.451 162.311 98.9782C162.409 98.9782 158.421 96.5482 158.519 96.5482Z" fill="#FFA683"/>
<path d="M94.7222 152.632C94.7222 152.244 90.7349 148.939 90.4431 148.744C90.4431 148.647 90.3459 148.647 90.3459 148.55L87.8174 153.896C87.8174 153.896 93.9442 159.048 94.6249 158.562C95.0139 158.173 93.5552 155.937 92.4854 152.827C93.4579 152.632 94.7222 153.021 94.7222 152.632Z" fill="#FFA683"/>
<path d="M128.663 119.099C129.343 120.557 129.927 122.403 129.83 124.25C129.732 125.708 129.149 127.263 127.69 128.624C127.398 128.916 127.204 129.11 127.009 129.402C126.912 129.499 126.912 129.499 126.912 129.596C123.217 134.651 126.718 141.941 127.301 143.01C127.301 143.01 127.301 143.107 127.398 143.107H127.009C107.754 152.73 93.6525 143.885 92.4855 143.107H92.3882C92.68 142.524 96.6672 134.845 92.8745 129.596C92.5827 129.305 92.3882 128.916 91.9992 128.624C88.8872 125.514 89.7624 120.557 91.0267 117.932L80.3291 132.998L90.5404 148.161L87.6229 154.382C87.6229 154.382 67.2975 135.137 67.5893 133.679C67.881 132.221 83.8301 104.033 89.1789 100.242C94.4305 96.451 105.031 95.965 105.031 95.965H112.714C112.714 95.965 120.591 95.5762 127.107 100.145L140.527 113.558L158.032 96.2566L162.7 99.0754C162.7 99.0754 146.849 120.557 141.208 126.972C140.236 128.041 138.679 128.138 137.61 127.166L128.663 119.099Z" fill="#BA95F4"/>
<path d="M140.527 125.417C137.221 127.944 123.217 110.156 125.453 114.044C127.69 117.932 123.703 122.987 120.105 131.735C116.993 139.219 120.299 144.273 121.174 145.537C123.022 144.954 124.967 144.079 127.009 143.107H127.398C127.398 143.107 127.398 143.01 127.301 143.01C126.718 141.941 123.217 134.651 126.912 129.596C126.912 129.499 127.009 129.499 127.009 129.402C127.204 129.11 127.496 128.916 127.69 128.624C129.052 127.263 129.635 125.708 129.83 124.25C130.024 122.403 129.441 120.557 128.663 119.099L137.61 127.166C138.679 128.138 140.333 128.041 141.208 126.972C146.848 120.557 162.7 99.0754 162.7 99.0754C162.7 98.7838 144.223 122.598 140.527 125.417Z" fill="#976CEA"/>
<path d="M91.1239 117.932C91.1239 117.932 93.069 111.809 94.3332 110.351C94.3332 110.351 78.3841 130.763 77.6061 133.095C76.8281 135.428 90.5404 148.259 90.5404 148.259L80.3291 133.095L91.1239 117.932Z" fill="#976CEA"/>
<path d="M91.124 117.932C90.735 118.71 90.4433 119.585 90.2488 120.557L91.124 117.932Z" fill="#976CEA"/>
<g opacity="0.25">
<path d="M116.604 96.2566H102.405C100.849 96.451 98.7097 96.7426 96.4729 97.3258H121.272C119.521 96.7426 117.965 96.3538 116.604 96.2566Z" fill="#009A9A"/>
<path d="M158.032 96.2566L157.06 97.2286H159.686L158.032 96.2566Z" fill="#009A9A"/>
<path d="M160.853 101.603H152.684L151.614 102.672H160.075C160.366 102.283 160.658 101.894 160.853 101.603Z" fill="#009A9A"/>
<path d="M128.565 101.603H87.7202C87.4285 101.894 87.1367 102.283 86.845 102.672H129.635L128.565 101.603Z" fill="#009A9A"/>
<path d="M156.866 106.948H147.238L146.168 108.018H156.088C156.282 107.629 156.574 107.337 156.866 106.948Z" fill="#009A9A"/>
<path d="M133.914 106.948H83.5384C83.3439 107.24 83.0522 107.629 82.8577 108.018H134.984L133.914 106.948Z" fill="#009A9A"/>
<path d="M139.36 112.295H79.9403C79.7458 112.683 79.454 112.975 79.2595 113.364H140.333L139.36 112.295Z" fill="#009A9A"/>
<path d="M152.781 112.295H141.792L140.722 113.364H152.003C152.295 112.975 152.489 112.683 152.781 112.295Z" fill="#009A9A"/>
<path d="M91.1239 117.932C91.0266 118.224 90.9294 118.418 90.7349 118.71H147.821C148.113 118.321 148.405 118.029 148.599 117.641H76.6336C76.4391 118.029 76.2446 118.321 76.05 118.71H90.6376L91.1239 117.932Z" fill="#009A9A"/>
<path d="M87.4284 123.084H73.4243C73.2298 123.473 73.0353 123.764 72.8408 124.153H86.7477L87.4284 123.084Z" fill="#009A9A"/>
<path d="M134.303 124.153H143.639C143.931 123.861 144.223 123.473 144.515 123.084H133.136L134.303 124.153Z" fill="#009A9A"/>
<path d="M89.957 124.153H129.83C129.83 123.764 129.83 123.473 129.83 123.084H89.957C89.957 123.375 89.957 123.764 89.957 124.153Z" fill="#009A9A"/>
<path d="M83.6356 128.43H70.3123C70.1178 128.818 69.9233 129.11 69.7288 129.499H82.8576L83.6356 128.43Z" fill="#009A9A"/>
<path d="M91.9992 128.624C92.2909 128.916 92.4854 129.207 92.6799 129.499H126.912C126.912 129.499 126.912 129.499 126.912 129.402C127.107 129.11 127.398 128.916 127.593 128.624C127.69 128.527 127.69 128.527 127.787 128.43H91.8047C91.9019 128.527 91.9992 128.624 91.9992 128.624Z" fill="#009A9A"/>
<path d="M81.0099 133.776H67.5894C67.6866 133.97 67.8811 134.359 68.2701 134.845H81.6907L81.0099 133.776Z" fill="#009A9A"/>
<path d="M94.5277 134.845H125.259C125.259 134.456 125.259 134.164 125.356 133.776H94.4304C94.5277 134.164 94.5277 134.553 94.5277 134.845Z" fill="#009A9A"/>
<path d="M93.6526 140.191H126.134C126.037 139.899 125.94 139.511 125.843 139.122H93.9443C93.8471 139.511 93.7498 139.899 93.6526 140.191Z" fill="#009A9A"/>
<path d="M84.6082 139.219H72.1602C72.4519 139.511 72.8409 139.899 73.1327 140.288H85.1917L84.6082 139.219Z" fill="#009A9A"/>
<path d="M97.4452 145.634H121.174C122.05 145.343 123.022 144.954 123.995 144.565H95.0139C95.6947 144.857 96.4727 145.245 97.4452 145.634Z" fill="#009A9A"/>
<path d="M88.2066 144.565H77.509C77.898 144.954 78.1898 145.245 78.5788 145.634H88.8874L88.2066 144.565Z" fill="#009A9A"/>
<path d="M89.7625 149.911H83.0522C83.4412 150.3 83.8302 150.591 84.122 150.98H89.2763L89.7625 149.911Z" fill="#009A9A"/>
</g>
<path d="M112.13 96.3539L108.629 98.4923L104.836 96.3539V89.2583H112.13V96.3539Z" fill="#FFA683"/>
<path d="M112.13 92.0771V96.3539L111.255 96.9371C111.255 96.7427 111.352 96.5483 111.352 96.3539C111.741 94.4099 112.033 92.8547 112.13 92.0771Z" fill="#FFA683"/>
<path d="M116.02 80.6074V85.9534C116.02 85.9534 114.95 89.9386 112.13 91.9798C112.616 89.8414 115.534 83.1346 116.02 80.6074Z" fill="#FFA683"/>
<path d="M112.13 92.0771V93.5351C111.158 94.2155 110.088 94.7015 108.726 94.7015C107.073 94.7015 105.809 94.2155 104.739 93.5351V92.0771C105.712 92.7575 107.073 93.2436 108.726 93.2436C110.088 93.2436 111.255 92.7575 112.13 92.0771Z" fill="#F48260"/>
<path d="M116.214 81.5795H116.117V81.4823V79.8299C116.117 79.8299 105.809 80.5103 103.961 76.3307C103.766 75.9419 101.238 80.7047 101.238 80.7047V81.6767C100.071 81.8711 99.0984 82.9403 99.0984 84.2039C99.0984 85.4675 100.265 86.7311 101.432 87.1199C102.016 89.1611 103.864 93.2435 108.726 93.2435C112.713 93.2435 114.756 89.2583 115.631 87.2171H115.728C117.187 87.2171 118.743 85.6619 118.743 84.2039C118.743 82.7459 117.576 81.5795 116.214 81.5795Z" fill="#FFA683"/>
<path d="M115.631 87.2171H115.728C117.187 87.2171 118.743 85.6619 118.743 84.2039C118.743 82.7459 117.576 81.5795 116.117 81.5795H116.02V79.8299C116.02 79.8299 105.711 80.5103 103.864 76.3307C103.669 75.9419 101.141 80.7047 101.141 80.7047V81.6767C99.9736 81.8711 99.0011 82.9403 99.0011 84.2039C99.0011 85.4675 100.168 86.7311 101.335 87.1199C101.724 88.4807 102.697 90.7163 104.739 92.0771V95.0903C92.3881 87.7031 93.8468 71.4707 99.9736 68.4575C102.697 67.0967 104.058 68.1659 104.058 68.1659C113.783 59.6124 121.563 69.6239 123.995 73.5119C127.204 78.7607 140.333 112.975 126.718 117.641C101.821 126.097 109.699 94.6043 112.033 92.1743C114.172 89.9387 115.436 88.0919 115.631 87.2171Z" fill="#441982"/>
</g>
<defs>
<clipPath id="clip0_45_1474">
<rect width="428" height="302" fill="white"/>
</clipPath>
</defs>
</svg>
