<svg width="415" height="294" viewBox="0 0 415 294" fill="none" xmlns="http://www.w3.org/2000/svg">
<path d="M92.9066 70.6693C138.325 47.7598 184.476 68.0099 215.783 112.135C247.09 156.26 312.785 81.6783 347.634 125.729C371.409 155.8 360.521 233.085 327.914 266.573C283.599 312.08 148.819 288.992 119.666 281.252C86.0747 272.323 61.5234 245.253 51.5433 212.405C27.5059 133.232 72.8371 80.8017 92.9066 70.6693Z" fill="url(#paint0_linear_45_1200)" fill-opacity="0.3"/>
<g clip-path="url(#clip0_45_1200)">
<path d="M414.54 131.922H0V137.106H414.54V131.922Z" fill="#407BFF"/>
<path d="M24.7139 135.683V259.983H27.9684L32.0365 135.683H24.7139Z" fill="#407BFF"/>
<path d="M62.8521 139.748V254.901H66.1065L70.1746 139.748H62.8521Z" fill="#407BFF"/>
<path opacity="0.5" d="M62.8521 139.748V254.901H66.1065L70.1746 139.748H62.8521Z" fill="black"/>
<path d="M391.352 135.683V259.983H388.097L384.029 135.683H391.352Z" fill="#407BFF"/>
<path d="M353.213 139.748V254.901H349.959L345.891 139.748H353.213Z" fill="#407BFF"/>
<path opacity="0.5" d="M353.213 139.748V254.901H349.959L345.891 139.748H353.213Z" fill="black"/>
<path d="M398.674 142.696H17.0858L8.64453 137.207H407.115L398.674 142.696Z" fill="#407BFF"/>
<path opacity="0.5" d="M398.674 142.696H17.0858L8.64453 137.207H407.115L398.674 142.696Z" fill="black"/>
<path d="M27.2563 115.966V120.031C27.2563 120.742 27.5615 121.352 27.9683 121.86L31.2228 125.113C31.5279 125.418 31.833 125.621 32.2398 125.723C33.5619 128.568 36.4096 130.499 39.7658 130.499H40.9862C45.5628 130.499 49.2241 126.841 49.2241 122.267V112.815H31.5279V113.628H29.7989C28.3751 113.425 27.2563 114.543 27.2563 115.966ZM29.2904 115.966C29.2904 115.661 29.4938 115.457 29.7989 115.457H31.5279V122.165C31.5279 122.267 31.5279 122.369 31.5279 122.47L29.4938 120.438C29.3921 120.336 29.3921 120.234 29.3921 120.031V115.966H29.2904Z" fill="#407BFF"/>
<path opacity="0.5" d="M27.2563 115.966V120.031C27.2563 120.742 27.5615 121.352 27.9683 121.86L31.2228 125.113C31.5279 125.418 31.833 125.621 32.2398 125.723C33.5619 128.568 36.4096 130.499 39.7658 130.499H40.9862C45.5628 130.499 49.2241 126.841 49.2241 122.267V112.815H31.5279V113.628H29.7989C28.3751 113.425 27.2563 114.543 27.2563 115.966ZM29.2904 115.966C29.2904 115.661 29.4938 115.457 29.7989 115.457H31.5279V122.165C31.5279 122.267 31.5279 122.369 31.5279 122.47L29.4938 120.438C29.3921 120.336 29.3921 120.234 29.3921 120.031V115.966H29.2904Z" fill="white"/>
<path d="M53.4956 131.821H27.8665C26.2393 131.821 24.8154 130.296 24.8154 130.296H56.445C56.445 130.296 55.1228 131.821 53.4956 131.821Z" fill="#407BFF"/>
<path opacity="0.5" d="M53.4956 131.821H27.8665C26.2393 131.821 24.8154 130.296 24.8154 130.296H56.445C56.445 130.296 55.1228 131.821 53.4956 131.821Z" fill="white"/>
<path d="M397.454 119.421C397.352 115.356 394.199 114.441 390.233 113.933V112.51C390.233 112.205 389.928 111.9 389.623 111.9H375.791C375.384 111.9 375.079 112.205 375.079 112.51V131.719H390.233V129.585C394.301 129.077 397.352 123.385 397.454 119.421ZM390.233 127.044V116.372C393.182 116.779 395.216 117.185 394.809 120.133C394.403 122.572 392.572 126.739 390.233 127.044Z" fill="#407BFF"/>
<g opacity="0.5">
<path d="M397.454 119.421C397.352 115.356 394.199 114.441 390.233 113.933V112.51C390.233 112.205 389.928 111.9 389.623 111.9H375.791C375.384 111.9 375.079 112.205 375.079 112.51V131.719H390.233V129.585C394.301 129.077 397.352 123.385 397.454 119.421ZM390.233 127.044V116.372C393.182 116.779 395.216 117.185 394.809 120.133C394.403 122.572 392.572 126.739 390.233 127.044Z" fill="white"/>
</g>
<path d="M212.864 107.124H200.863V131.516H212.864V107.124Z" fill="#407BFF"/>
<path opacity="0.5" d="M212.864 107.124H200.863V131.516H212.864V107.124Z" fill="white"/>
<path d="M218.356 131.922H195.574L201.168 127.044H212.762L218.356 131.922Z" fill="#407BFF"/>
<path opacity="0.5" d="M218.356 131.922H195.574L201.168 127.044H212.762L218.356 131.922Z" fill="white"/>
<path d="M268.292 124.097H211.44L221.712 131.923H278.564L268.292 124.097Z" fill="#407BFF"/>
<path opacity="0.4" d="M268.292 124.097H211.44L221.712 131.923H278.564L268.292 124.097Z" fill="white"/>
<path d="M212.762 131.923L211.44 124.097L221.712 131.923H212.762Z" fill="#407BFF"/>
<path opacity="0.5" d="M212.762 131.923L211.44 124.097L221.712 131.923H212.762Z" fill="black"/>
<path d="M154.893 49.4963H258.325C259.444 49.4963 260.257 50.4111 260.257 51.4274V114.848C260.257 115.966 259.342 116.779 258.325 116.779H154.893C153.775 116.779 152.961 115.864 152.961 114.848V51.529C152.961 50.4111 153.876 49.4963 154.893 49.4963Z" fill="#407BFF"/>
<path opacity="0.5" d="M256.189 53.7651H156.826V112.409H256.189V53.7651Z" fill="black"/>
<path opacity="0.4" d="M253.036 65.7581H202.897V100.212H253.036V65.7581Z" fill="black"/>
<path d="M253.036 65.7581H202.897V68.9088H253.036V65.7581Z" fill="#407BFF"/>
<path d="M164.25 59.1516H160.894V62.5056H164.25V59.1516Z" fill="white"/>
<path d="M164.25 67.8923H160.894V71.2463H164.25V67.8923Z" fill="white"/>
<path d="M164.25 76.7344H160.894V80.0883H164.25V76.7344Z" fill="white"/>
<path d="M164.25 85.4751H160.894V88.8291H164.25V85.4751Z" fill="white"/>
<path d="M164.25 94.3174H160.894V97.6713H164.25V94.3174Z" fill="white"/>
<path d="M164.25 103.058H160.894V106.412H164.25V103.058Z" fill="white"/>
<path d="M181.132 59.9646H167.606V60.981H181.132V59.9646Z" fill="white"/>
<path d="M175.539 68.7053H170.759V69.7217H175.539V68.7053Z" fill="white"/>
<path d="M196.489 78.564H191.709V79.5803H196.489V78.564Z" fill="white"/>
<path d="M175.539 86.4915H170.759V87.5078H175.539V86.4915Z" fill="white"/>
<path d="M182.454 86.4915H177.674V87.5078H182.454V86.4915Z" fill="white"/>
<path d="M189.98 78.564H177.674V79.5803H189.98V78.564Z" fill="white"/>
<path d="M193.032 86.4915H184.896V87.5078H193.032V86.4915Z" fill="white"/>
<path d="M189.573 105.294H184.793V106.31H189.573V105.294Z" fill="white"/>
<path d="M196.591 105.294H191.811V106.31H196.591V105.294Z" fill="white"/>
<path d="M201.574 105.294H198.93V106.31H201.574V105.294Z" fill="white"/>
<path d="M193.031 68.7053H177.979V69.7217H193.031V68.7053Z" fill="white"/>
<path d="M182.454 95.6387H177.674V96.655H182.454V95.6387Z" fill="white"/>
<path d="M186.828 95.6387H184.082V96.655H186.828V95.6387Z" fill="white"/>
<path d="M196.896 95.6387H189.065V96.655H196.896V95.6387Z" fill="white"/>
<path d="M198.218 21.5466C198.015 33.8444 185.201 44.1096 169.64 44.5161C164.86 44.7194 160.182 43.8047 155.707 41.9753C154.181 45.8374 150.825 49.1914 141.367 50.6142C151.232 42.9916 145.842 36.5886 143.604 30.897C142.485 28.5594 141.875 25.8153 141.875 22.9695C142.079 10.6716 154.893 0.406471 170.454 -6.98902e-05C186.014 -0.406611 198.422 9.24873 198.218 21.5466Z" fill="#407BFF"/>
<path d="M170.352 8.63892H156.826V9.65527H170.352V8.63892Z" fill="white"/>
<path d="M164.759 17.4812H159.979V18.4976H164.759V17.4812Z" fill="white"/>
<path d="M185.811 27.3398H181.031V28.3562H185.811V27.3398Z" fill="white"/>
<path d="M164.759 35.1658H159.979V36.1821H164.759V35.1658Z" fill="white"/>
<path d="M171.776 35.1658H166.996V36.1821H171.776V35.1658Z" fill="white"/>
<path d="M179.302 27.3398H166.996V28.3562H179.302V27.3398Z" fill="white"/>
<path d="M182.251 35.1658H174.115V36.1821H182.251V35.1658Z" fill="white"/>
<path d="M182.251 17.4812H167.199V18.4976H182.251V17.4812Z" fill="white"/>
<path d="M256.901 254.495L249.477 252.36L251.206 234.167L258.63 236.403L256.901 254.495Z" fill="#7F3E3B"/>
<path opacity="0.2" d="M259.24 232.236L251.816 230.102L250.9 240.266L258.325 241.688L259.24 232.236Z" fill="black"/>
<path d="M300.836 142.391C300.836 142.391 249.883 146.66 251.104 168.816C252.121 186.907 254.765 182.029 249.578 235.895L262.393 236.607C262.393 236.607 275.411 192.599 273.682 175.016C288.022 175.016 320.973 176.235 325.753 163.328C328.093 156.721 329.313 149.81 329.11 142.797L300.836 142.391Z" fill="#407BFF"/>
<path d="M264.325 239.046L247.646 236.2L247.849 228.781L265.241 232.643L264.325 239.046Z" fill="#263238"/>
<path d="M248.765 249.311L257.308 251.039C257.613 251.039 257.817 251.445 257.817 251.75L257.105 259.881C257.003 260.796 256.291 261.304 255.579 261.202C252.63 260.593 251.206 260.084 247.443 259.373C245.104 258.966 239.815 257.848 236.561 257.442C233.306 257.035 233.713 253.275 235.137 253.072C241.442 252.258 245.002 251.242 247.443 249.616C247.748 249.311 248.257 249.209 248.765 249.311Z" fill="#263238"/>
<path d="M244.9 250.734C245.612 250.836 246.222 250.836 246.934 250.836C247.036 250.836 247.036 250.836 247.036 250.734C247.036 250.632 247.036 250.632 247.036 250.531C246.832 250.327 244.9 248.498 243.883 248.701C243.68 248.701 243.476 248.905 243.375 249.108C243.171 249.413 243.273 249.819 243.476 250.124C243.883 250.531 244.392 250.734 244.9 250.734ZM246.527 250.429C245.103 250.429 244.086 250.226 243.781 249.819C243.68 249.616 243.68 249.413 243.781 249.209C243.781 249.108 243.883 249.006 243.985 249.006C244.595 248.905 245.714 249.718 246.527 250.429Z" fill="#407BFF"/>
<path d="M246.934 250.836C247.036 250.836 247.138 250.734 247.138 250.734C247.138 250.632 247.748 248.498 247.036 247.583C246.832 247.38 246.629 247.177 246.324 247.177C246.019 247.177 245.714 247.278 245.612 247.583C245.307 248.396 246.12 250.226 246.934 250.836ZM246.426 247.583C246.527 247.583 246.731 247.685 246.832 247.787C247.138 248.6 247.138 249.514 246.934 250.327C246.324 249.616 246.019 248.701 246.019 247.787C245.917 247.685 246.019 247.482 246.426 247.583Z" fill="#407BFF"/>
<path d="M223.848 257.34L216.83 254.189L221.712 236.81L228.729 239.961L223.848 257.34Z" fill="#7F3E3B"/>
<path opacity="0.2" d="M229.95 235.489L222.831 232.338L220.39 241.282L227.407 244.432L229.95 235.489Z" fill="black"/>
<path d="M285.581 142.391C285.276 142.391 228.424 148.286 228.322 167.495C228.221 199.307 219.067 235.895 219.067 235.895L230.255 241.485C230.255 241.485 249.782 201.949 249.476 177.048C265.139 172.577 305.515 180.098 310.295 167.19C314.261 156.62 312.125 142.492 312.125 142.492L285.581 142.391Z" fill="#407BFF"/>
<path d="M232.187 243.01L217.135 236.2L218.356 230.102L234.221 235.59L232.187 243.01Z" fill="#263238"/>
<path d="M217.542 248.397L226.085 250.226C226.39 250.328 226.594 250.632 226.594 251.039L225.882 259.983C225.78 260.898 225.068 261.609 224.356 261.507C221.407 260.796 219.983 260.288 216.22 259.475C213.881 258.967 207.575 257.442 204.422 256.629C201.27 255.816 201.982 251.75 203.405 251.75C209.711 251.649 213.779 250.632 216.22 248.905C216.525 248.397 217.034 248.295 217.542 248.397Z" fill="#263238"/>
<path d="M213.982 250.226C214.593 249.921 215.101 249.515 215.61 249.108C215.711 249.108 215.711 249.006 215.711 248.905C215.711 248.803 215.61 248.803 215.61 248.803C215.305 248.803 212.66 248.397 212.05 249.21C211.948 249.413 211.847 249.616 211.948 249.819C212.05 250.226 212.253 250.429 212.559 250.632C212.965 250.734 213.576 250.531 213.982 250.226ZM215.101 249.108C213.982 250.023 213.067 250.429 212.559 250.226C212.355 250.124 212.152 249.921 212.152 249.718C212.152 249.616 212.152 249.514 212.253 249.413C212.66 249.006 214.084 249.006 215.101 249.108Z" fill="#407BFF"/>
<path d="M215.61 249.108C215.711 249.006 215.711 248.905 215.711 248.905C215.61 248.803 214.796 246.77 213.779 246.465C213.474 246.364 213.169 246.465 212.965 246.567C212.66 246.77 212.559 247.075 212.66 247.38C212.864 248.193 214.694 249.108 215.61 249.108ZM213.27 246.77C213.372 246.669 213.576 246.669 213.677 246.77C214.389 247.279 214.898 247.888 215.203 248.701C214.287 248.498 213.474 247.99 212.965 247.177C212.965 247.177 212.965 246.974 213.27 246.77Z" fill="#407BFF"/>
<path d="M304.905 80.9016C306.43 84.1539 307.651 87.203 308.871 90.4553C310.091 93.7076 311.21 96.8583 312.227 100.212C313.244 103.566 314.159 106.92 314.77 110.376C315.583 114.035 315.888 117.694 315.888 121.454C315.888 123.588 315.583 125.824 314.871 127.857C314.465 129.178 313.854 130.398 313.142 131.516C312.736 132.126 312.227 132.736 311.719 133.244L311.312 133.65C311.108 133.854 310.803 134.057 310.498 134.26C310.091 134.565 309.583 134.768 309.176 134.972C308.464 135.276 307.752 135.48 306.939 135.683C306.328 135.785 305.718 135.886 305.108 135.988C304.091 136.09 303.074 136.09 301.955 135.988C300.125 135.886 298.294 135.683 296.463 135.378C289.751 134.158 283.14 132.227 276.733 129.687L278.157 124.097C284.666 124.91 291.175 125.723 297.379 126.028C298.904 126.028 300.43 126.129 301.853 126.028C302.464 126.028 303.074 125.926 303.684 125.824C304.193 125.723 304.599 125.519 304.498 125.519C304.396 125.519 304.294 125.621 304.193 125.621C304.091 125.723 303.989 125.723 303.887 125.824C303.887 125.824 303.989 125.723 303.989 125.621C304.091 125.316 304.193 125.011 304.294 124.706C304.498 123.588 304.599 122.47 304.599 121.352C304.498 118.405 303.989 115.559 303.277 112.713C302.565 109.664 301.65 106.717 300.735 103.668C299.718 100.619 298.701 97.6714 297.582 94.6224C296.463 91.5733 295.243 88.6259 294.022 85.7801L304.905 80.9016Z" fill="#7F3E3B"/>
<path d="M281.208 125.621L274.496 121.861L271.14 129.178C271.14 129.178 279.072 132.431 280.7 130.398L281.208 125.621Z" fill="#7F3E3B"/>
<path d="M269.004 123.182L265.953 128.06L271.038 129.077L274.496 121.759L269.004 123.182Z" fill="#7F3E3B"/>
<path d="M289.242 86.6948C287.92 89.9472 286.598 92.9962 285.174 96.1469C283.75 99.2976 282.326 102.347 280.801 105.497C277.75 111.799 274.394 117.897 270.631 123.792C269.614 125.316 268.597 126.739 267.478 128.264C266.868 128.975 266.257 129.788 265.647 130.5C265.24 130.906 264.935 131.211 264.528 131.618L263.918 132.227L263.613 132.532C262.596 133.345 261.477 133.955 260.257 134.26C259.647 134.463 258.935 134.565 258.325 134.667C257.206 134.768 256.189 134.87 255.07 134.768C253.138 134.667 251.307 134.565 249.476 134.26C242.561 133.04 235.848 131.109 229.339 128.569L230.865 122.979C237.476 123.792 244.188 124.605 250.494 124.91C252.019 125.011 253.443 124.91 254.968 124.808C255.579 124.808 256.189 124.706 256.799 124.503C257.002 124.503 257.206 124.402 257.308 124.3C257.409 124.3 257.308 124.198 257.002 124.402C256.901 124.503 256.799 124.503 256.697 124.605L256.799 124.503L257.104 124.198C257.308 123.995 257.511 123.69 257.714 123.487C258.121 122.979 258.528 122.369 259.037 121.759C259.85 120.539 260.664 119.218 261.477 117.897C263.105 115.153 264.63 112.307 266.054 109.359C267.58 106.412 269.003 103.465 270.326 100.416C273.173 94.4191 275.817 88.321 278.462 82.2229L289.242 86.6948Z" fill="#7F3E3B"/>
<path d="M233.509 124.503L226.797 120.641L223.441 127.959C223.441 127.959 231.374 131.211 233.001 129.178L233.509 124.503Z" fill="#7F3E3B"/>
<path d="M221.305 122.064L218.254 126.942L223.339 127.959L226.797 120.641L221.305 122.064Z" fill="#7F3E3B"/>
<path d="M306.634 50.6143L302.362 55.5944L295.752 62.4039C295.853 62.7088 296.057 63.217 296.26 63.6236C296.769 64.8432 297.074 66.1644 297.176 67.5873C297.277 70.3315 297.074 72.6691 292.802 74.4985C292.802 74.4985 288.327 80.3934 299.006 78.7672C309.685 77.141 311.312 71.5511 311.312 71.5511C306.532 68.1971 306.329 56.9156 306.634 50.6143Z" fill="#7F3E3B"/>
<path d="M284.768 45.0246C284.768 45.736 284.463 46.2442 283.954 46.2442C283.446 46.2442 283.141 45.736 283.141 45.0246C283.141 44.3131 283.446 43.8049 283.954 43.8049C284.361 43.8049 284.768 44.3131 284.768 45.0246Z" fill="#263238"/>
<path d="M287.005 42.4835C286.904 42.4835 286.7 42.3819 286.7 42.2802C286.192 41.3655 285.276 40.8573 284.259 40.7557C284.056 40.7557 283.853 40.5524 283.853 40.3492C283.853 40.1459 284.056 39.9426 284.259 39.9426C285.581 40.0443 286.7 40.7557 287.412 41.8737C287.514 42.077 287.514 42.2802 287.31 42.3819C287.209 42.4835 287.107 42.4835 287.005 42.4835Z" fill="#263238"/>
<path d="M284.564 45.4309C284.056 47.2603 283.242 48.9881 282.225 50.6143C283.039 51.1225 284.056 51.1225 284.971 50.8176L284.564 45.4309Z" fill="#630F0F"/>
<path d="M307.244 41.6705C306.837 50.0046 307.04 54.8831 302.871 59.2534C298.904 63.6237 291.988 64.0302 287.615 59.9648C285.988 58.5419 284.869 56.6109 284.361 54.4765C282.53 47.1588 283.445 34.7593 291.48 31.1004C296.87 28.4579 303.481 30.5923 306.125 36.0806C307.041 37.8083 307.447 39.7394 307.244 41.6705Z" fill="#7F3E3B"/>
<path d="M311.007 44.4147C309.786 47.9719 307.956 51.2242 305.616 54.07L294.836 56.1027C294.836 56.1027 286.293 52.5455 288.53 46.6507C287.106 45.431 287.615 41.6705 288.632 39.5362C290.259 40.8575 292.904 40.9591 294.429 39.3329C295.649 41.4673 299.107 41.7722 300.633 39.8411C302.362 41.7722 306.125 41.1624 307.244 38.8248C308.566 39.6378 310.396 39.5362 311.617 38.5199C311.617 38.4182 311.719 38.4182 311.719 38.4182C312.024 39.9427 311.82 41.8738 311.007 44.4147Z" fill="#263238"/>
<path opacity="0.1" d="M311.007 44.4147C309.786 47.9719 307.956 51.2242 305.616 54.07L294.836 56.1027C294.836 56.1027 286.293 52.5455 288.53 46.6507C287.106 45.431 287.615 41.6705 288.632 39.5362C290.259 40.8575 292.904 40.9591 294.429 39.3329C295.649 41.4673 299.107 41.7722 300.633 39.8411C302.362 41.7722 306.125 41.1624 307.244 38.8248C308.566 39.6378 310.396 39.5362 311.617 38.5199C311.617 38.4182 311.719 38.4182 311.719 38.4182C312.024 39.9427 311.82 41.8738 311.007 44.4147Z" fill="white"/>
<path d="M312.634 34.3528C313.244 35.674 312.939 37.4018 311.82 38.5198L311.719 38.6214C310.498 39.6378 308.668 39.7394 307.345 38.9264C306.328 41.3656 302.565 41.9754 300.735 39.9427C299.209 41.8738 295.65 41.5689 294.531 39.4345C293.107 40.9591 290.361 40.8574 288.734 39.6378C288.327 39.3329 287.92 38.8247 287.717 38.4182C287.615 38.3165 287.615 38.2149 287.615 38.1133C287.513 38.2149 287.412 38.3165 287.31 38.4182C286.293 39.2313 284.767 39.3329 283.649 38.6214C282.733 38.0116 282.327 36.8936 282.327 35.8773C282.327 35.674 282.428 35.4708 282.428 35.2675C282.327 35.4708 282.225 35.5724 282.123 35.674C281.208 36.5887 279.377 36.6904 278.462 35.5724C277.343 34.2511 277.953 32.0152 279.479 31.1004C280.089 30.7955 280.699 30.5923 281.411 30.5923C282.428 30.5923 283.547 30.9988 284.361 31.6086C283.445 30.2874 283.75 28.3563 285.073 27.4416C286.293 26.5269 288.225 26.8318 289.242 27.9498C289.141 26.5269 289.547 25.6121 290.361 25.2056C291.785 24.3925 294.124 25.104 295.243 26.4252C295.243 26.4252 296.768 22.6647 299.514 23.0713C300.125 23.1729 302.871 24.3925 302.769 25.4089C302.769 25.5105 302.769 25.5105 302.769 25.6121C302.769 25.5105 302.871 25.4089 302.871 25.4089C303.379 24.5958 304.498 24.1893 305.515 24.1893C306.634 24.1893 307.651 24.5958 308.668 25.0023C310.803 25.917 313.041 26.8318 314.261 28.7628C315.278 30.5923 314.77 33.743 312.634 34.3528Z" fill="#263238"/>
<path d="M293.311 47.4637C293.006 49.4964 292.09 51.4275 290.666 52.8504C288.836 54.5782 287.208 52.8504 287.208 50.2079C287.208 47.7686 288.124 44.0081 290.26 43.2967C292.395 42.4836 293.717 44.8212 293.311 47.4637Z" fill="#7F3E3B"/>
<path d="M325.855 74.397C325.042 72.3642 321.482 70.3315 319.346 70.3315H317.922C315.38 70.3315 312.227 70.5348 309.176 70.9414C303.379 71.5512 297.582 72.5675 291.887 73.8888C289.242 74.6002 286.7 75.4133 284.767 76.2264C282.225 77.2427 280.699 77.9542 280.699 77.9542C280.699 77.9542 283.547 96.6551 284.971 115.153C285.784 125.519 285.479 135.785 285.683 142.797H329.11C330.635 134.362 330.33 126.942 330.534 111.595C330.534 102.347 329.008 82.8327 325.855 74.397Z" fill="#263238"/>
<path opacity="0.2" d="M284.055 104.684C284.36 108.546 284.665 112.612 285.072 116.779C290.157 109.36 293.005 89.0325 293.005 89.0325L284.055 104.684Z" fill="black"/>
<path d="M278.259 79.1738C272.055 82.6294 265.953 100.517 265.953 100.517L280.191 111.291C285.581 106.107 293.616 93.4027 294.429 88.321C295.752 80.5967 288.226 73.6855 278.259 79.1738Z" fill="#263238"/>
<path d="M265.952 261.304C265.952 263.743 264.02 265.776 261.477 265.776C259.037 265.776 257.002 263.845 257.002 261.304C257.002 258.865 258.935 256.832 261.477 256.832C264.02 256.934 265.952 258.865 265.952 261.304Z" fill="#263238"/>
<path d="M331.958 261.304C331.958 263.743 333.89 265.776 336.432 265.776C338.873 265.776 340.907 263.845 340.907 261.304C340.907 258.865 338.975 256.832 336.432 256.832C333.89 256.934 331.958 258.865 331.958 261.304Z" fill="#263238"/>
<path d="M294.632 259.881C294.632 262.32 296.565 264.353 299.107 264.353C301.548 264.353 303.582 262.422 303.582 259.881C303.582 257.442 301.65 255.511 299.107 255.511C296.666 255.511 294.632 257.442 294.632 259.881Z" fill="#263238"/>
<path d="M297.684 254.494V245.957H284.971C282.53 245.957 279.987 246.16 277.547 246.668L253.952 251.242C252.833 251.445 252.019 252.563 252.223 253.783C252.426 254.799 253.341 255.511 254.358 255.511L297.684 254.494Z" fill="#263238"/>
<path d="M297.684 254.494V245.957H310.396C312.837 245.957 315.38 246.16 317.821 246.668L344.365 250.937C345.484 251.14 346.297 252.258 346.094 253.478C345.891 254.494 344.975 255.206 343.958 255.206L297.684 254.494Z" fill="#263238"/>
<path d="M305.515 206.828H289.853V245.957H305.515V206.828Z" fill="#263238"/>
<path d="M303.277 188.533H292.09V206.726H303.277V188.533Z" fill="#263238"/>
<path opacity="0.5" d="M292.09 193.92L303.277 196.766V188.533H292.09V193.92Z" fill="black"/>
<path d="M261.579 147.371H255.884V171.662H261.579V147.371Z" fill="#263238"/>
<path d="M290.056 188.533V83.2392C290.056 79.2754 291.785 75.4133 294.734 72.8724L302.26 66.2661C304.803 64.0302 308.057 62.8105 311.413 62.8105H338.568L351.789 76.9378V188.635H290.056V188.533Z" fill="#407BFF"/>
<path d="M249.578 168.206H311.515V188.635H239.51C235.441 188.635 232.187 185.383 232.187 181.317C232.187 179.996 232.492 178.675 233.204 177.557C236.662 171.764 242.866 168.206 249.578 168.206Z" fill="#407BFF"/>
<path opacity="0.7" d="M351.789 76.9378V188.635H239.51C235.441 188.635 232.187 185.383 232.187 181.317C232.187 179.996 232.492 178.675 233.204 177.557C236.662 171.763 242.866 168.206 249.578 168.206H280.801C285.886 168.206 290.056 164.039 290.056 158.957V83.2392C290.056 79.2754 291.785 75.4133 294.734 72.8724L302.26 66.2661C304.803 64.0302 308.057 62.8105 311.413 62.8105H338.568L351.789 76.9378Z" fill="white"/>
<path d="M299.107 188.533V83.2392C299.107 79.2754 300.836 75.4133 303.786 72.8724L311.312 66.2661C313.854 64.0302 317.109 62.8105 320.465 62.8105H341.619C345.484 62.8105 349.043 64.4367 351.688 67.1809L357.078 72.9741C359.519 75.5149 360.841 78.9705 360.841 82.4261V178.065C360.841 183.858 356.163 188.635 350.264 188.635H299.107V188.533Z" fill="#407BFF"/>
<path opacity="0.5" d="M299.107 188.533V83.2392C299.107 79.2754 300.836 75.4133 303.786 72.8724L311.312 66.2661C313.854 64.0302 317.109 62.8105 320.465 62.8105H341.619C345.484 62.8105 349.043 64.4367 351.688 67.1809L357.078 72.9741C359.519 75.5149 360.841 78.9705 360.841 82.4261V178.065C360.841 183.858 356.163 188.635 350.264 188.635H299.107V188.533Z" fill="white"/>
<path d="M277.953 154.79C265.444 150.42 251.816 150.42 239.306 154.79C236.662 155.807 233.814 154.689 232.492 152.148C231.373 149.709 232.899 146.558 236.052 145.44C250.697 140.358 266.563 140.358 281.208 145.44C284.361 146.558 285.886 149.709 284.767 152.148C283.445 154.689 280.598 155.807 277.953 154.79Z" fill="#407BFF"/>
<path opacity="0.7" d="M277.953 154.79C265.444 150.42 251.816 150.42 239.306 154.79C236.662 155.807 233.814 154.689 232.492 152.148C231.373 149.709 232.899 146.558 236.052 145.44C250.697 140.358 266.563 140.358 281.208 145.44C284.361 146.558 285.886 149.709 284.767 152.148C283.445 154.689 280.598 155.807 277.953 154.79Z" fill="white"/>
<path d="M119.907 53.9685C119.704 54.5783 119.806 55.1881 120.212 55.2898C120.619 55.3914 121.128 55.0865 121.331 54.4767C121.535 53.8669 121.433 53.2571 121.026 53.1554C120.619 52.9521 120.111 53.3587 119.907 53.9685Z" fill="#263238"/>
<path d="M119.805 54.5781C119.907 56.7125 120.212 58.7452 120.924 60.7779C119.907 61.0828 118.788 60.8795 117.873 60.2697L119.805 54.5781Z" fill="#A02724"/>
<path d="M118.992 49.903C119.094 49.903 119.195 49.903 119.195 49.903C120.111 49.5981 121.128 49.8014 121.84 50.3096C122.043 50.4112 122.246 50.4112 122.348 50.2079C122.45 50.1063 122.45 49.903 122.348 49.6998C121.331 48.9883 120.111 48.785 118.992 49.1916C118.788 49.2932 118.687 49.4965 118.788 49.6998C118.788 49.6998 118.89 49.8014 118.992 49.903Z" fill="#263238"/>
<path d="M97.6344 56.2043C98.7531 61.9976 99.8718 72.5676 95.8037 76.4297C95.8037 76.4297 97.431 82.3246 108.11 82.3246C119.907 82.3246 113.805 76.4297 113.805 76.4297C107.398 74.9052 108.415 70.1284 109.534 65.5548L97.6344 56.2043Z" fill="#B55B52"/>
<path d="M100.279 45.736C98.1429 53.257 96.5157 57.6273 98.9566 62.709C102.618 70.3317 115.229 71.348 118.687 62.6074C121.331 54.4766 123.975 45.9392 117.67 40.5526C113.195 36.5888 106.483 36.9953 102.516 41.4673C101.499 42.5853 100.686 44.1098 100.279 45.736Z" fill="#B55B52"/>
<path d="M92.0408 48.1752C91.5323 45.431 91.3289 42.3819 92.7527 39.8411C94.1766 37.4018 97.5327 35.8773 99.9736 37.3002C102.109 32.8282 107.194 29.9825 112.076 30.5923C116.958 31.2021 121.331 35.0642 122.348 39.9427C123.365 44.7196 121.026 50.1062 116.856 52.6471C117.466 50.6144 117.975 48.4801 118.585 46.4474C118.077 49.2931 116.551 52.0373 114.212 53.7651C114.517 51.7324 114.822 49.598 115.229 47.5653C114.924 50.5128 113.195 53.2569 110.652 54.7814C111.059 53.3585 111.466 51.834 111.873 50.4111C111.669 51.0209 110.144 55.5945 109.534 56.2043C108.517 57.3223 107.906 65.0466 104.347 65.2499C92.3459 67.5875 93.3629 54.6798 92.0408 48.1752Z" fill="#263238"/>
<path d="M108.211 51.8341C108.008 53.7652 108.415 55.6963 109.432 57.4241C110.754 59.5584 112.788 58.7453 113.5 56.5093C114.11 54.4766 114.212 50.9194 112.381 49.5981C110.551 48.1753 108.517 49.4965 108.211 51.8341Z" fill="#B55B52"/>
<path d="M79.6332 125.113C78.3111 124.707 72.3106 121.556 71.2936 122.166C74.0395 115.051 75.8702 113.933 77.0906 109.461C77.8025 106.92 77.294 104.989 75.7685 102.855C73.9378 100.416 73.3276 99.2977 70.3782 99.501C66.3101 106.311 61.1233 114.746 59.0893 122.471C58.3773 125.113 57.9705 127.044 59.4961 129.178C60.8182 131.11 63.3608 131.923 65.6999 132.126C71.3953 132.634 79.7349 131.618 79.6332 128.264C79.6332 126.028 79.6332 125.113 79.6332 125.113Z" fill="#B55B52"/>
<path d="M78.6164 124.808L83.3964 123.283L82.9896 131.922C82.9896 131.922 79.1249 132.024 77.0908 129.483L78.6164 124.808Z" fill="#B55B52"/>
<path d="M89.397 123.182L88.7868 130.296L82.9897 131.923L83.3966 123.284L89.397 123.182Z" fill="#B55B52"/>
<path d="M144.52 131.008C144.52 131.008 137.807 125.723 129.061 108.445C127.739 106.005 126.518 103.566 125.298 101.127C124.077 98.6877 122.959 96.2485 121.84 93.606L132.214 89.134C134.349 93.8093 137.705 98.5861 140.045 103.261C142.384 107.937 147.977 118.812 148.689 119.828C148.994 120.336 149.401 120.743 149.808 121.251L150.317 121.962L143.604 129.686L144.52 131.008Z" fill="#B55B52"/>
<path d="M153.266 97.2649L151.232 94.8257L150.316 91.0652L156.622 85.272C156.622 85.272 158.148 87.1014 159.165 89.1341C159.368 89.439 159.368 89.7439 159.368 90.1505L159.063 96.6551L153.266 97.2649Z" fill="#B55B52"/>
<path d="M150.317 87.1014L154.995 82.8328L156.52 85.272L150.215 91.0652L150.317 87.1014Z" fill="#B55B52"/>
<path d="M153.367 95.4356C153.571 94.7241 153.673 96.147 154.181 95.5372C155.605 93.911 157.537 93.7078 158.758 95.5372C159.978 97.3666 158.961 115.458 157.029 121.149C155.707 124.91 155.096 127.959 151.842 130.195C150.52 131.11 148.893 131.821 147.265 131.821C145.638 131.821 143.909 130.906 143.299 129.382C142.282 127.044 145.943 118.507 147.164 115.763C151.13 107.124 151.435 103.668 153.367 95.4356Z" fill="#B55B52"/>
<path d="M139.943 94.724C142.689 94.724 145.435 94.6224 148.283 94.6224C149.503 94.6224 150.724 94.6224 151.741 94.1142C153.164 93.4027 153.978 91.9798 154.588 90.557C155.809 87.5079 155.91 84.2556 156.317 81.0032C156.826 77.8526 157.741 74.4986 160.182 72.3643C155.809 72.9741 147.978 71.5512 144.621 75.21C142.689 77.0395 139.536 94.724 139.943 94.724Z" fill="#407BFF"/>
<path opacity="0.5" d="M139.943 94.724C142.689 94.724 145.435 94.6224 148.283 94.6224C149.503 94.6224 150.724 94.6224 151.741 94.1142C153.164 93.4027 153.978 91.9798 154.588 90.557C155.809 87.5079 155.91 84.2556 156.317 81.0032C156.826 77.8526 157.741 74.4986 160.182 72.3643C155.809 72.9741 147.978 71.5512 144.621 75.21C142.689 77.0395 139.536 94.724 139.943 94.724Z" fill="white"/>
<path d="M154.08 82.3245C153.571 82.4261 153.266 84.1539 153.368 84.6621L153.876 85.4752L154.791 89.6422L157.944 87.9144L155.097 82.8327C154.995 82.4261 154.486 82.2228 154.08 82.3245Z" fill="#B55B52"/>
<path d="M82.4809 77.8527C75.0566 79.5805 64.0728 102.652 64.0728 102.652L78.9213 112.815C82.5826 107.53 87.6678 99.501 90.5154 93.7078C94.9904 84.459 90.0069 76.1249 82.4809 77.8527Z" fill="#407BFF"/>
<path d="M93.2613 78.4626C92.4476 76.6331 91.4306 74.4988 93.363 73.7873C95.4987 73.0759 107.093 72.2628 111.161 73.6857C113.398 74.2955 114.619 76.5315 114.11 78.7675V78.8691L93.2613 78.4626Z" fill="#263238"/>
<path opacity="0.2" d="M87.0575 91.2686L76.4805 111.189L79.023 112.917C79.023 112.917 83.8031 106.209 87.1592 100.517V91.2686H87.0575Z" fill="black"/>
<path d="M127.637 88.0163C129.264 96.1471 125.501 115.458 125.501 146.965H83.1928C82.8877 140.562 87.566 125.52 81.7689 95.4356C81.5655 94.4193 81.4638 78.056 82.4808 77.8527C86.5489 77.1413 90.7188 76.6331 94.8886 76.4299C100.889 76.1249 106.889 76.1249 112.89 76.4299C115.331 76.6331 119.195 78.1577 121.636 79.0724C125.399 80.3936 126.823 84.0525 127.637 88.0163Z" fill="#407BFF"/>
<path opacity="0.2" d="M116.348 96.147C117.467 102.855 121.84 111.697 126.213 116.779C126.417 113.018 126.722 109.055 126.722 106.006L116.348 96.147Z" fill="black"/>
<path d="M113.398 86.085C112.381 93.606 127.128 112.713 127.128 112.713L141.977 102.55C141.977 102.55 137.807 91.9798 130.891 85.0686C122.958 77.1411 114.517 77.9542 113.398 86.085Z" fill="#407BFF"/>
<path d="M161.911 251.852H169.742L171.572 233.558H163.64L161.911 251.852Z" fill="#B55B52"/>
<path opacity="0.2" d="M171.471 234.676L170.555 244.128H162.623L163.538 234.676H171.471Z" fill="black"/>
<path d="M130.688 251.852H138.621L142.587 233.558H134.654L130.688 251.852Z" fill="#B55B52"/>
<g opacity="0.2">
<path d="M134.451 234.574H142.384L140.35 243.924H132.417L134.451 234.574Z" fill="black"/>
</g>
<path d="M170.25 248.295H161.605C161.3 248.295 160.995 248.6 160.893 249.006L159.368 258.052C159.266 258.865 159.571 259.678 160.182 259.881C160.283 259.881 160.385 259.881 160.487 259.881C163.639 259.78 168.114 259.576 171.979 259.576C176.556 259.576 180.522 259.881 185.912 259.881C189.167 259.881 190.082 255.613 188.76 255.206C182.556 253.478 177.471 253.275 172.182 249.006C171.572 248.6 170.86 248.397 170.25 248.295Z" fill="#263238"/>
<path d="M176.556 251.242C177.573 251.242 178.59 251.141 178.895 250.632C179.098 250.429 179.098 250.023 178.895 249.819C178.793 249.616 178.59 249.413 178.285 249.413C176.963 249.006 174.217 250.632 174.115 250.734C174.013 250.734 174.013 250.836 174.013 250.937C174.013 251.039 174.115 251.039 174.115 251.141C174.928 251.141 175.742 251.242 176.556 251.242ZM177.776 249.718C177.878 249.718 177.98 249.718 178.183 249.718C178.386 249.718 178.488 249.819 178.59 250.023C178.692 250.226 178.692 250.327 178.59 250.429C178.183 250.937 176.251 250.937 174.725 250.734C175.64 250.226 176.657 249.819 177.776 249.718Z" fill="#407BFF"/>
<path d="M174.115 251.039C175.132 250.632 177.064 248.905 176.861 247.99C176.861 247.787 176.658 247.482 176.149 247.482C175.742 247.482 175.437 247.583 175.132 247.787C174.115 248.6 173.912 250.734 173.912 250.836C173.912 250.937 174.013 250.937 174.115 251.039ZM176.047 247.888H176.149C176.454 247.888 176.556 248.092 176.556 248.092C176.658 248.6 175.335 250.023 174.42 250.531C174.522 249.616 174.827 248.803 175.437 248.092C175.539 247.888 175.844 247.888 176.047 247.888Z" fill="#407BFF"/>
<path d="M139.129 248.295H130.281C129.976 248.295 129.671 248.6 129.569 249.006L128.044 258.052C127.942 258.865 128.349 259.678 128.959 259.881C129.061 259.881 129.163 259.881 129.264 259.881C132.417 259.78 133.841 259.576 137.807 259.576C140.248 259.576 143.299 259.881 146.655 259.881C150.012 259.881 150.418 255.613 149.096 255.206C142.994 253.478 142.587 251.141 140.655 248.803C140.045 248.498 139.638 248.295 139.129 248.295Z" fill="#263238"/>
<path d="M143.808 252.259C144.52 252.36 145.13 252.157 145.74 251.75C145.944 251.446 145.944 251.141 145.74 250.836C145.638 250.632 145.435 250.429 145.13 250.429C144.011 250.124 141.774 251.649 141.672 251.75C141.57 251.75 141.57 251.852 141.57 251.954C141.57 252.055 141.672 252.055 141.672 252.055C142.384 252.157 143.096 252.259 143.808 252.259ZM144.825 250.734C144.926 250.734 144.927 250.734 145.028 250.734C145.13 250.734 145.333 250.836 145.333 250.937C145.537 251.242 145.435 251.344 145.333 251.446C145.028 251.852 143.401 251.852 142.181 251.75C142.994 251.242 143.909 250.937 144.825 250.734Z" fill="#407BFF"/>
<path d="M141.774 252.055C142.689 251.649 144.215 249.921 144.113 249.006C144.011 248.701 143.808 248.498 143.503 248.498C143.198 248.498 142.892 248.6 142.689 248.701C141.774 249.413 141.57 251.75 141.57 251.852C141.57 251.954 141.57 251.954 141.672 252.055H141.774ZM143.401 248.905C143.706 248.905 143.706 249.006 143.808 249.108C143.909 249.616 142.892 250.937 142.079 251.547C142.181 250.632 142.486 249.819 142.994 249.108C143.096 248.905 143.198 248.905 143.401 248.905Z" fill="#407BFF"/>
<path d="M112.788 146.964C112.788 146.964 150.215 162.413 158.046 174.304C153.469 204.49 145.13 238.944 145.13 238.944H130.993C130.993 238.944 130.586 219.837 134.655 194.428C136.689 157.433 70.175 195.749 83.0913 146.863H112.788V146.964Z" fill="#263238"/>
<path opacity="0.3" d="M138.723 172.475C136.079 172.577 133.536 172.983 130.892 173.39C128.146 173.796 125.4 174.203 122.654 174.609C126.925 178.167 131.4 181.419 136.079 184.366C138.926 186.196 141.977 187.923 145.333 187.923C149.096 187.923 159.267 183.147 157.64 178.065C155.911 173.085 142.994 172.272 138.723 172.475Z" fill="black"/>
<path d="M125.501 146.964C125.501 146.964 160.182 151.436 179.2 162.311C185.099 165.665 184.285 176.439 184.082 183.451C183.675 202.457 180.014 221.158 173.301 238.944H161.504C161.504 238.944 162.114 219.735 161.707 188.838C161.606 179.589 142.791 176.54 124.484 175.422C108.619 174.406 94.7869 164.547 88.6848 149.912L87.4644 146.964H125.501Z" fill="#263238"/>
<path d="M176.251 235.794C176.352 235.794 175.437 241.384 175.437 241.384H159.165L158.758 236.404L176.251 235.794Z" fill="#407BFF"/>
<path d="M146.554 235.794C146.656 235.794 145.028 241.384 145.028 241.384H128.756L129.061 236.404L146.554 235.794Z" fill="#407BFF"/>
<path d="M102.821 175.016L91.1255 260.898L88.9897 260.593L98.0413 174.406L102.821 175.016Z" fill="#407BFF"/>
<path opacity="0.4" d="M102.313 178.065L91.1255 260.898L88.9897 260.593L97.6345 178.065H102.313Z" fill="black"/>
<path d="M143.808 178.065H77.7012C77.7012 173.898 81.0574 170.544 85.2272 170.544H136.282C140.452 170.544 143.808 173.898 143.808 178.065Z" fill="#407BFF"/>
<path opacity="0.7" d="M143.808 178.065H77.7012C77.7012 173.898 81.0574 170.544 85.2272 170.544H136.282C140.452 170.544 143.808 173.898 143.808 178.065Z" fill="white"/>
<path d="M80.752 178.065L70.7852 261.609H72.9209L85.532 178.065H80.752Z" fill="#407BFF"/>
<path d="M140.757 178.065L150.723 261.609H148.588L135.977 178.065H140.757Z" fill="#407BFF"/>
<path opacity="0.4" d="M140.757 178.065L150.723 261.609H148.588L135.977 178.065H140.757Z" fill="black"/>
<path d="M127.433 178.065L127.637 261.609H125.501L122.552 178.065H127.433Z" fill="#407BFF"/>
<path opacity="0.2" d="M325.299 29.4961L369.832 17.5635L357.899 62.0966L325.299 29.4961Z" stroke="#F2F2F2"/>
</g>
<defs>
<linearGradient id="paint0_linear_45_1200" x1="202.566" y1="61.1519" x2="202.566" y2="291.446" gradientUnits="userSpaceOnUse">
<stop stop-color="#02AEF4"/>
<stop offset="1" stop-color="#E05BFF" stop-opacity="0.4"/>
</linearGradient>
<clipPath id="clip0_45_1200">
<rect width="414.54" height="265.776" fill="white"/>
</clipPath>
</defs>
</svg>
